G75*
%MOIN*%
%OFA0B0*%
%FSLAX25Y25*%
%IPPOS*%
%LPD*%
%AMOC8*
5,1,8,0,0,1.08239X$1,22.5*
%
%ADD10C,0.10000*%
%ADD11C,0.07400*%
%ADD12C,0.06600*%
%ADD13OC8,0.05200*%
%ADD14C,0.05800*%
%ADD15C,0.05150*%
%ADD16C,0.01600*%
%ADD17C,0.04356*%
%ADD18C,0.05000*%
D10*
X0056217Y0061800D03*
X0233383Y0061800D03*
D11*
X0194700Y0086500D03*
X0176900Y0086500D03*
X0176900Y0112100D03*
X0176900Y0123500D03*
X0194700Y0123500D03*
X0194700Y0112100D03*
X0194700Y0149100D03*
X0176900Y0149100D03*
X0176900Y0164000D03*
X0194700Y0164000D03*
X0194700Y0189600D03*
X0176900Y0189600D03*
D12*
X0057800Y0049300D03*
X0047800Y0049300D03*
X0037800Y0049300D03*
D13*
X0210300Y0117800D03*
X0219550Y0126050D03*
X0230800Y0106300D03*
X0219550Y0086050D03*
X0230800Y0146300D03*
X0210300Y0157800D03*
D14*
X0244300Y0160800D03*
X0244300Y0170800D03*
X0244300Y0180800D03*
X0244300Y0150800D03*
X0244300Y0140800D03*
X0244300Y0130800D03*
X0244300Y0120800D03*
X0244300Y0110800D03*
X0244300Y0100800D03*
X0244300Y0090800D03*
X0244300Y0080800D03*
X0244300Y0070800D03*
X0244300Y0060800D03*
X0244300Y0050800D03*
X0304300Y0050800D03*
X0304300Y0060800D03*
X0304300Y0070800D03*
X0304300Y0080800D03*
X0304300Y0090800D03*
X0304300Y0100800D03*
X0304300Y0110800D03*
X0304300Y0120800D03*
X0304300Y0130800D03*
X0304300Y0140800D03*
X0304300Y0150800D03*
X0304300Y0160800D03*
X0304300Y0170800D03*
X0304300Y0180800D03*
D15*
X0305300Y0192300D03*
X0295300Y0192300D03*
X0285300Y0192300D03*
X0315300Y0192300D03*
X0336800Y0173800D03*
X0336800Y0163800D03*
X0336800Y0153800D03*
X0336800Y0143800D03*
X0318800Y0145300D03*
X0318800Y0135300D03*
X0318800Y0125300D03*
X0318800Y0115300D03*
X0318800Y0105300D03*
X0318800Y0095300D03*
X0370300Y0091300D03*
X0370300Y0081300D03*
X0370300Y0071300D03*
X0370300Y0061300D03*
X0370300Y0051300D03*
X0408800Y0075300D03*
X0408800Y0085300D03*
X0408800Y0095300D03*
X0408800Y0105300D03*
X0408800Y0115300D03*
X0408800Y0125300D03*
X0408800Y0135300D03*
X0408800Y0145300D03*
X0408800Y0155300D03*
X0318800Y0155300D03*
X0318800Y0165300D03*
X0233800Y0189800D03*
X0223800Y0189800D03*
X0213800Y0189800D03*
X0203800Y0189800D03*
X0130800Y0187300D03*
X0120800Y0187300D03*
X0110800Y0187300D03*
X0100800Y0187300D03*
X0090800Y0187300D03*
X0080800Y0187300D03*
X0070800Y0187300D03*
X0060800Y0187300D03*
X0094373Y0096052D03*
X0104373Y0096052D03*
X0114373Y0096052D03*
X0124373Y0096052D03*
X0134373Y0096052D03*
X0144373Y0096052D03*
X0068800Y0085300D03*
X0058800Y0085300D03*
X0048800Y0085300D03*
X0038800Y0085300D03*
X0370300Y0101300D03*
D16*
X0031599Y0046600D02*
X0031572Y0194494D01*
X0045469Y0194494D01*
X0044237Y0193263D01*
X0043337Y0192363D01*
X0042850Y0191187D01*
X0042850Y0107413D01*
X0043337Y0106237D01*
X0044237Y0105337D01*
X0060096Y0089479D01*
X0059824Y0089567D01*
X0059144Y0089675D01*
X0058800Y0089675D01*
X0058800Y0085300D01*
X0063175Y0085300D01*
X0063175Y0085644D01*
X0063067Y0086324D01*
X0062979Y0086596D01*
X0064625Y0084949D01*
X0064625Y0084470D01*
X0065261Y0082935D01*
X0066435Y0081761D01*
X0067970Y0081125D01*
X0068449Y0081125D01*
X0073487Y0076087D01*
X0074663Y0075600D01*
X0234437Y0075600D01*
X0235613Y0076087D01*
X0239800Y0080275D01*
X0239800Y0079905D01*
X0240485Y0078251D01*
X0241751Y0076985D01*
X0243405Y0076300D01*
X0245195Y0076300D01*
X0246665Y0076909D01*
X0269587Y0053987D01*
X0270487Y0053087D01*
X0271663Y0052600D01*
X0300175Y0052600D01*
X0299800Y0051695D01*
X0299800Y0049905D01*
X0300485Y0048251D01*
X0301751Y0046985D01*
X0302681Y0046600D01*
X0245919Y0046600D01*
X0246849Y0046985D01*
X0248115Y0048251D01*
X0248800Y0049905D01*
X0248800Y0051695D01*
X0248115Y0053349D01*
X0246849Y0054615D01*
X0245195Y0055300D01*
X0243405Y0055300D01*
X0241751Y0054615D01*
X0240485Y0053349D01*
X0239800Y0051695D01*
X0239800Y0049905D01*
X0240485Y0048251D01*
X0241751Y0046985D01*
X0242681Y0046600D01*
X0061985Y0046600D01*
X0062700Y0048325D01*
X0062700Y0050275D01*
X0061954Y0052076D01*
X0060576Y0053454D01*
X0058775Y0054200D01*
X0056825Y0054200D01*
X0055024Y0053454D01*
X0053646Y0052076D01*
X0052900Y0050275D01*
X0052900Y0048325D01*
X0053615Y0046600D01*
X0051985Y0046600D01*
X0052700Y0048325D01*
X0052700Y0051353D01*
X0056547Y0055200D01*
X0057530Y0055200D01*
X0059956Y0056205D01*
X0061813Y0058061D01*
X0062817Y0060487D01*
X0062817Y0063113D01*
X0061813Y0065539D01*
X0059956Y0067395D01*
X0057530Y0068400D01*
X0054904Y0068400D01*
X0052479Y0067395D01*
X0050622Y0065539D01*
X0049617Y0063113D01*
X0049617Y0062130D01*
X0043646Y0056158D01*
X0042900Y0054357D01*
X0042900Y0048325D01*
X0043615Y0046600D01*
X0041985Y0046600D01*
X0042700Y0048325D01*
X0042700Y0072270D01*
X0052954Y0082524D01*
X0053700Y0084325D01*
X0053700Y0086275D01*
X0052954Y0088076D01*
X0051576Y0089454D01*
X0049775Y0090200D01*
X0047825Y0090200D01*
X0046024Y0089454D01*
X0042895Y0086324D01*
X0042339Y0087665D01*
X0041165Y0088839D01*
X0039630Y0089475D01*
X0037970Y0089475D01*
X0036435Y0088839D01*
X0035261Y0087665D01*
X0034625Y0086130D01*
X0034625Y0084470D01*
X0035261Y0082935D01*
X0036435Y0081761D01*
X0037776Y0081205D01*
X0033646Y0077076D01*
X0032900Y0075275D01*
X0032900Y0048325D01*
X0033615Y0046600D01*
X0031599Y0046600D01*
X0031599Y0048194D02*
X0032954Y0048194D01*
X0032900Y0049793D02*
X0031599Y0049793D01*
X0031598Y0051391D02*
X0032900Y0051391D01*
X0032900Y0052990D02*
X0031598Y0052990D01*
X0031598Y0054588D02*
X0032900Y0054588D01*
X0032900Y0056187D02*
X0031597Y0056187D01*
X0031597Y0057785D02*
X0032900Y0057785D01*
X0032900Y0059384D02*
X0031597Y0059384D01*
X0031596Y0060982D02*
X0032900Y0060982D01*
X0032900Y0062581D02*
X0031596Y0062581D01*
X0031596Y0064179D02*
X0032900Y0064179D01*
X0032900Y0065778D02*
X0031596Y0065778D01*
X0031595Y0067376D02*
X0032900Y0067376D01*
X0032900Y0068975D02*
X0031595Y0068975D01*
X0031595Y0070573D02*
X0032900Y0070573D01*
X0032900Y0072172D02*
X0031594Y0072172D01*
X0031594Y0073770D02*
X0032900Y0073770D01*
X0032939Y0075369D02*
X0031594Y0075369D01*
X0031594Y0076967D02*
X0033601Y0076967D01*
X0035136Y0078566D02*
X0031593Y0078566D01*
X0031593Y0080164D02*
X0036735Y0080164D01*
X0036433Y0081763D02*
X0031593Y0081763D01*
X0031592Y0083361D02*
X0035084Y0083361D01*
X0034625Y0084960D02*
X0031592Y0084960D01*
X0031592Y0086558D02*
X0034802Y0086558D01*
X0035753Y0088157D02*
X0031592Y0088157D01*
X0031591Y0089755D02*
X0046752Y0089755D01*
X0044727Y0088157D02*
X0041847Y0088157D01*
X0042798Y0086558D02*
X0043129Y0086558D01*
X0050848Y0089755D02*
X0059819Y0089755D01*
X0058800Y0089675D02*
X0058456Y0089675D01*
X0057776Y0089567D01*
X0057121Y0089354D01*
X0056507Y0089042D01*
X0055950Y0088637D01*
X0055463Y0088150D01*
X0055058Y0087593D01*
X0054746Y0086979D01*
X0054533Y0086324D01*
X0054425Y0085644D01*
X0054425Y0085300D01*
X0058800Y0085300D01*
X0058800Y0085300D01*
X0058800Y0085300D01*
X0063175Y0085300D01*
X0063175Y0084956D01*
X0063067Y0084276D01*
X0062854Y0083621D01*
X0062542Y0083007D01*
X0062137Y0082450D01*
X0061650Y0081963D01*
X0061093Y0081558D01*
X0060479Y0081246D01*
X0059824Y0081033D01*
X0059144Y0080925D01*
X0058800Y0080925D01*
X0058800Y0085300D01*
X0058800Y0085300D01*
X0058800Y0085300D01*
X0058800Y0089675D01*
X0058800Y0088157D02*
X0058800Y0088157D01*
X0058800Y0086558D02*
X0058800Y0086558D01*
X0058800Y0085300D02*
X0054425Y0085300D01*
X0054425Y0084956D01*
X0054533Y0084276D01*
X0054746Y0083621D01*
X0055058Y0083007D01*
X0055463Y0082450D01*
X0055950Y0081963D01*
X0056507Y0081558D01*
X0057121Y0081246D01*
X0057776Y0081033D01*
X0058456Y0080925D01*
X0058800Y0080925D01*
X0058800Y0085300D01*
X0058800Y0084960D02*
X0058800Y0084960D01*
X0058800Y0083361D02*
X0058800Y0083361D01*
X0058800Y0081763D02*
X0058800Y0081763D01*
X0061374Y0081763D02*
X0066433Y0081763D01*
X0065084Y0083361D02*
X0062722Y0083361D01*
X0063175Y0084960D02*
X0064615Y0084960D01*
X0063016Y0086558D02*
X0062991Y0086558D01*
X0068800Y0085300D02*
X0075300Y0078800D01*
X0114050Y0078800D01*
X0114373Y0079123D01*
X0114373Y0096052D01*
X0110199Y0096149D02*
X0108748Y0096149D01*
X0108748Y0096052D02*
X0108748Y0096396D01*
X0108640Y0097076D01*
X0108428Y0097731D01*
X0108115Y0098344D01*
X0107710Y0098902D01*
X0107223Y0099388D01*
X0106666Y0099793D01*
X0106053Y0100106D01*
X0105398Y0100319D01*
X0104718Y0100426D01*
X0104373Y0100426D01*
X0104029Y0100426D01*
X0103349Y0100319D01*
X0102694Y0100106D01*
X0102080Y0099793D01*
X0101523Y0099388D01*
X0101036Y0098902D01*
X0100632Y0098344D01*
X0100319Y0097731D01*
X0100106Y0097076D01*
X0099999Y0096396D01*
X0099999Y0096052D01*
X0104373Y0096052D01*
X0104373Y0100426D01*
X0104373Y0096052D01*
X0104373Y0096052D01*
X0104373Y0096051D01*
X0104373Y0096051D01*
X0104373Y0091677D01*
X0104029Y0091677D01*
X0103349Y0091784D01*
X0102694Y0091997D01*
X0102080Y0092310D01*
X0101523Y0092715D01*
X0101036Y0093202D01*
X0100632Y0093759D01*
X0100319Y0094372D01*
X0100106Y0095027D01*
X0099999Y0095707D01*
X0099999Y0096051D01*
X0104373Y0096051D01*
X0104373Y0091677D01*
X0104718Y0091677D01*
X0105398Y0091784D01*
X0106053Y0091997D01*
X0106666Y0092310D01*
X0107223Y0092715D01*
X0107710Y0093202D01*
X0108115Y0093759D01*
X0108428Y0094372D01*
X0108640Y0095027D01*
X0108748Y0095707D01*
X0108748Y0096051D01*
X0104373Y0096051D01*
X0104373Y0096052D01*
X0108748Y0096052D01*
X0108486Y0094551D02*
X0110476Y0094551D01*
X0110199Y0095221D02*
X0110834Y0093687D01*
X0111173Y0093347D01*
X0111173Y0082000D01*
X0076625Y0082000D01*
X0072975Y0085651D01*
X0072975Y0086130D01*
X0072339Y0087665D01*
X0071165Y0088839D01*
X0069630Y0089475D01*
X0069151Y0089475D01*
X0049250Y0109375D01*
X0049250Y0179325D01*
X0099087Y0129487D01*
X0099987Y0128587D01*
X0101163Y0128100D01*
X0131173Y0128100D01*
X0131173Y0098756D01*
X0130834Y0098416D01*
X0130199Y0096882D01*
X0130199Y0095221D01*
X0130834Y0093687D01*
X0132008Y0092512D01*
X0133543Y0091877D01*
X0135204Y0091877D01*
X0136738Y0092512D01*
X0137913Y0093687D01*
X0138548Y0095221D01*
X0138548Y0096882D01*
X0137913Y0098416D01*
X0137573Y0098756D01*
X0137573Y0128100D01*
X0174156Y0128100D01*
X0173898Y0127993D01*
X0172605Y0126700D01*
X0167863Y0126700D01*
X0166687Y0126213D01*
X0163487Y0123013D01*
X0162587Y0122113D01*
X0162100Y0120937D01*
X0162100Y0082000D01*
X0117573Y0082000D01*
X0117573Y0093347D01*
X0117913Y0093687D01*
X0118548Y0095221D01*
X0118548Y0096882D01*
X0117913Y0098416D01*
X0116738Y0099591D01*
X0115204Y0100226D01*
X0113543Y0100226D01*
X0112008Y0099591D01*
X0110834Y0098416D01*
X0110199Y0096882D01*
X0110199Y0095221D01*
X0111173Y0092952D02*
X0107461Y0092952D01*
X0104373Y0092952D02*
X0104373Y0092952D01*
X0104373Y0094551D02*
X0104373Y0094551D01*
X0104373Y0096149D02*
X0104373Y0096149D01*
X0104373Y0097748D02*
X0104373Y0097748D01*
X0104373Y0099346D02*
X0104373Y0099346D01*
X0101481Y0099346D02*
X0096983Y0099346D01*
X0096738Y0099591D02*
X0095204Y0100226D01*
X0093543Y0100226D01*
X0092008Y0099591D01*
X0090834Y0098416D01*
X0090199Y0096882D01*
X0090199Y0095221D01*
X0090834Y0093687D01*
X0092008Y0092512D01*
X0093543Y0091877D01*
X0095204Y0091877D01*
X0096738Y0092512D01*
X0097913Y0093687D01*
X0098548Y0095221D01*
X0098548Y0096882D01*
X0097913Y0098416D01*
X0096738Y0099591D01*
X0098189Y0097748D02*
X0100328Y0097748D01*
X0099999Y0096149D02*
X0098548Y0096149D01*
X0098270Y0094551D02*
X0100261Y0094551D01*
X0101286Y0092952D02*
X0097178Y0092952D01*
X0091568Y0092952D02*
X0065673Y0092952D01*
X0067272Y0091354D02*
X0111173Y0091354D01*
X0111173Y0089755D02*
X0068870Y0089755D01*
X0071847Y0088157D02*
X0111173Y0088157D01*
X0111173Y0086558D02*
X0072798Y0086558D01*
X0073666Y0084960D02*
X0111173Y0084960D01*
X0111173Y0083361D02*
X0075264Y0083361D01*
X0068800Y0085300D02*
X0046050Y0108050D01*
X0046050Y0190550D01*
X0049800Y0194300D01*
X0103800Y0194300D01*
X0110800Y0187300D01*
X0115800Y0182300D01*
X0125800Y0182300D01*
X0125727Y0182227D01*
X0125800Y0182300D02*
X0194300Y0182300D01*
X0194700Y0182700D01*
X0194700Y0189600D01*
X0199707Y0191361D02*
X0199193Y0192602D01*
X0197702Y0194093D01*
X0196734Y0194494D01*
X0281508Y0194494D01*
X0281246Y0193979D01*
X0281033Y0193324D01*
X0280925Y0192644D01*
X0280925Y0192300D01*
X0285300Y0192300D01*
X0289675Y0192300D01*
X0289675Y0192644D01*
X0289567Y0193324D01*
X0289354Y0193979D01*
X0289092Y0194494D01*
X0291690Y0194494D01*
X0291125Y0193130D01*
X0291125Y0191470D01*
X0291761Y0189935D01*
X0292100Y0189596D01*
X0292100Y0164000D01*
X0276563Y0164000D01*
X0275387Y0163513D01*
X0270875Y0159000D01*
X0248425Y0159000D01*
X0248800Y0159905D01*
X0248800Y0161695D01*
X0248115Y0163349D01*
X0246849Y0164615D01*
X0245195Y0165300D01*
X0244325Y0165300D01*
X0243269Y0166356D01*
X0243405Y0166300D01*
X0245195Y0166300D01*
X0246849Y0166985D01*
X0248115Y0168251D01*
X0248800Y0169905D01*
X0248800Y0171695D01*
X0248115Y0173349D01*
X0246849Y0174615D01*
X0245195Y0175300D01*
X0244325Y0175300D01*
X0243449Y0176176D01*
X0243930Y0176100D01*
X0244150Y0176100D01*
X0244150Y0180650D01*
X0244450Y0180650D01*
X0244450Y0180950D01*
X0249000Y0180950D01*
X0249000Y0181170D01*
X0248884Y0181901D01*
X0248656Y0182604D01*
X0248320Y0183263D01*
X0247885Y0183862D01*
X0247362Y0184385D01*
X0246763Y0184820D01*
X0246104Y0185156D01*
X0245401Y0185384D01*
X0244670Y0185500D01*
X0244450Y0185500D01*
X0244450Y0180950D01*
X0244150Y0180950D01*
X0244150Y0185500D01*
X0243930Y0185500D01*
X0243199Y0185384D01*
X0242496Y0185156D01*
X0241837Y0184820D01*
X0241238Y0184385D01*
X0240715Y0183862D01*
X0240280Y0183263D01*
X0239944Y0182604D01*
X0239716Y0181901D01*
X0239600Y0181170D01*
X0239600Y0180950D01*
X0244150Y0180950D01*
X0244150Y0180650D01*
X0239600Y0180650D01*
X0239600Y0180430D01*
X0239676Y0179949D01*
X0237000Y0182625D01*
X0237000Y0187096D01*
X0237339Y0187435D01*
X0237975Y0188970D01*
X0237975Y0190630D01*
X0237339Y0192165D01*
X0236165Y0193339D01*
X0234630Y0193975D01*
X0232970Y0193975D01*
X0231435Y0193339D01*
X0230261Y0192165D01*
X0229625Y0190630D01*
X0229625Y0188970D01*
X0230261Y0187435D01*
X0230600Y0187096D01*
X0230600Y0180663D01*
X0231087Y0179487D01*
X0239800Y0170775D01*
X0239800Y0169905D01*
X0239856Y0169769D01*
X0227000Y0182625D01*
X0227000Y0187096D01*
X0227339Y0187435D01*
X0227975Y0188970D01*
X0227975Y0190630D01*
X0227339Y0192165D01*
X0226165Y0193339D01*
X0224630Y0193975D01*
X0222970Y0193975D01*
X0221435Y0193339D01*
X0220261Y0192165D01*
X0219625Y0190630D01*
X0219625Y0188970D01*
X0220261Y0187435D01*
X0220600Y0187096D01*
X0220600Y0180663D01*
X0220698Y0180428D01*
X0217013Y0184113D01*
X0217000Y0184125D01*
X0217000Y0187096D01*
X0217339Y0187435D01*
X0217975Y0188970D01*
X0217975Y0190630D01*
X0217339Y0192165D01*
X0216165Y0193339D01*
X0214630Y0193975D01*
X0212970Y0193975D01*
X0211435Y0193339D01*
X0210261Y0192165D01*
X0209625Y0190630D01*
X0209625Y0188970D01*
X0210261Y0187435D01*
X0210600Y0187096D01*
X0210600Y0185500D01*
X0204616Y0185500D01*
X0204824Y0185533D01*
X0205479Y0185746D01*
X0206093Y0186058D01*
X0206650Y0186463D01*
X0207137Y0186950D01*
X0207542Y0187507D01*
X0207854Y0188121D01*
X0208067Y0188776D01*
X0208175Y0189456D01*
X0208175Y0189800D01*
X0208175Y0190144D01*
X0208067Y0190824D01*
X0207854Y0191479D01*
X0207542Y0192093D01*
X0207137Y0192650D01*
X0206650Y0193137D01*
X0206093Y0193542D01*
X0205479Y0193854D01*
X0204824Y0194067D01*
X0204144Y0194175D01*
X0203800Y0194175D01*
X0203800Y0189800D01*
X0203800Y0189800D01*
X0208175Y0189800D01*
X0203800Y0189800D01*
X0203800Y0189800D01*
X0203800Y0194175D01*
X0203456Y0194175D01*
X0202776Y0194067D01*
X0202121Y0193854D01*
X0201507Y0193542D01*
X0200950Y0193137D01*
X0200463Y0192650D01*
X0200058Y0192093D01*
X0199746Y0191479D01*
X0199707Y0191361D01*
X0199418Y0192060D02*
X0200042Y0192060D01*
X0201737Y0193659D02*
X0198137Y0193659D01*
X0203800Y0193659D02*
X0203800Y0193659D01*
X0203800Y0192060D02*
X0203800Y0192060D01*
X0203800Y0190462D02*
X0203800Y0190462D01*
X0205863Y0193659D02*
X0212206Y0193659D01*
X0210217Y0192060D02*
X0207558Y0192060D01*
X0208125Y0190462D02*
X0209625Y0190462D01*
X0209669Y0188863D02*
X0208081Y0188863D01*
X0207365Y0187265D02*
X0210431Y0187265D01*
X0210600Y0185666D02*
X0205234Y0185666D01*
X0213800Y0182800D02*
X0214300Y0182300D01*
X0194300Y0182300D01*
X0212975Y0179100D02*
X0231526Y0160549D01*
X0230437Y0161000D01*
X0213040Y0161000D01*
X0212040Y0162000D01*
X0208560Y0162000D01*
X0207560Y0161000D01*
X0199194Y0161000D01*
X0200000Y0162946D01*
X0200000Y0165054D01*
X0199193Y0167002D01*
X0197702Y0168493D01*
X0195754Y0169300D01*
X0193646Y0169300D01*
X0191698Y0168493D01*
X0190207Y0167002D01*
X0189400Y0165054D01*
X0189400Y0162946D01*
X0190206Y0161000D01*
X0184425Y0161000D01*
X0182200Y0163225D01*
X0182200Y0165054D01*
X0181393Y0167002D01*
X0179902Y0168493D01*
X0177954Y0169300D01*
X0175846Y0169300D01*
X0173898Y0168493D01*
X0172407Y0167002D01*
X0171600Y0165054D01*
X0171600Y0162946D01*
X0172407Y0160998D01*
X0173898Y0159507D01*
X0175846Y0158700D01*
X0177675Y0158700D01*
X0181287Y0155087D01*
X0182463Y0154600D01*
X0207560Y0154600D01*
X0208560Y0153600D01*
X0212040Y0153600D01*
X0213040Y0154600D01*
X0228475Y0154600D01*
X0234087Y0148987D01*
X0234987Y0148087D01*
X0236163Y0147600D01*
X0241136Y0147600D01*
X0241751Y0146985D01*
X0243405Y0146300D01*
X0245195Y0146300D01*
X0246849Y0146985D01*
X0248115Y0148251D01*
X0248800Y0149905D01*
X0248800Y0151695D01*
X0248425Y0152600D01*
X0272837Y0152600D01*
X0274013Y0153087D01*
X0274913Y0153987D01*
X0274913Y0153987D01*
X0278525Y0157600D01*
X0301136Y0157600D01*
X0301751Y0156985D01*
X0303405Y0156300D01*
X0305195Y0156300D01*
X0306849Y0156985D01*
X0307464Y0157600D01*
X0315234Y0157600D01*
X0314625Y0156130D01*
X0314625Y0154470D01*
X0315261Y0152935D01*
X0316435Y0151761D01*
X0317970Y0151125D01*
X0319630Y0151125D01*
X0321165Y0151761D01*
X0322339Y0152935D01*
X0322975Y0154470D01*
X0322975Y0156130D01*
X0322366Y0157600D01*
X0323100Y0157600D01*
X0323100Y0123625D01*
X0318949Y0119475D01*
X0317970Y0119475D01*
X0316435Y0118839D01*
X0315261Y0117665D01*
X0315000Y0117035D01*
X0315000Y0123565D01*
X0315261Y0122935D01*
X0316435Y0121761D01*
X0317970Y0121125D01*
X0319630Y0121125D01*
X0321165Y0121761D01*
X0322339Y0122935D01*
X0322975Y0124470D01*
X0322975Y0126130D01*
X0322339Y0127665D01*
X0321165Y0128839D01*
X0319630Y0129475D01*
X0317970Y0129475D01*
X0316435Y0128839D01*
X0315261Y0127665D01*
X0315000Y0127035D01*
X0315000Y0133565D01*
X0315261Y0132935D01*
X0316435Y0131761D01*
X0317970Y0131125D01*
X0319630Y0131125D01*
X0321165Y0131761D01*
X0322339Y0132935D01*
X0322975Y0134470D01*
X0322975Y0136130D01*
X0322339Y0137665D01*
X0321165Y0138839D01*
X0319630Y0139475D01*
X0317970Y0139475D01*
X0316435Y0138839D01*
X0315261Y0137665D01*
X0314772Y0136486D01*
X0314513Y0137113D01*
X0313613Y0138013D01*
X0312613Y0139013D01*
X0311437Y0139500D01*
X0308632Y0139500D01*
X0308800Y0139905D01*
X0308800Y0141695D01*
X0308115Y0143349D01*
X0306849Y0144615D01*
X0305195Y0145300D01*
X0303405Y0145300D01*
X0301751Y0144615D01*
X0300485Y0143349D01*
X0299800Y0141695D01*
X0299800Y0139905D01*
X0299968Y0139500D01*
X0248632Y0139500D01*
X0248800Y0139905D01*
X0248800Y0141695D01*
X0248115Y0143349D01*
X0246849Y0144615D01*
X0245195Y0145300D01*
X0243405Y0145300D01*
X0241751Y0144615D01*
X0241136Y0144000D01*
X0237625Y0144000D01*
X0235000Y0146625D01*
X0235000Y0148040D01*
X0232540Y0150500D01*
X0231125Y0150500D01*
X0229813Y0151813D01*
X0228637Y0152300D01*
X0198995Y0152300D01*
X0197702Y0153593D01*
X0195754Y0154400D01*
X0193646Y0154400D01*
X0191698Y0153593D01*
X0190207Y0152102D01*
X0189400Y0150154D01*
X0189400Y0148046D01*
X0190207Y0146098D01*
X0191698Y0144607D01*
X0193646Y0143800D01*
X0195754Y0143800D01*
X0197702Y0144607D01*
X0198995Y0145900D01*
X0226600Y0145900D01*
X0226600Y0144560D01*
X0229060Y0142100D01*
X0230475Y0142100D01*
X0233075Y0139500D01*
X0115000Y0139500D01*
X0115000Y0145526D01*
X0115681Y0146207D01*
X0116378Y0147889D01*
X0116378Y0149711D01*
X0115681Y0151393D01*
X0114393Y0152681D01*
X0112711Y0153378D01*
X0110889Y0153378D01*
X0109207Y0152681D01*
X0107919Y0151393D01*
X0107222Y0149711D01*
X0107222Y0147889D01*
X0107919Y0146207D01*
X0108600Y0145526D01*
X0108600Y0140025D01*
X0064015Y0184611D01*
X0064339Y0184935D01*
X0064975Y0186470D01*
X0064975Y0188130D01*
X0064780Y0188600D01*
X0064975Y0188600D01*
X0066625Y0186949D01*
X0066625Y0186470D01*
X0067261Y0184935D01*
X0068435Y0183761D01*
X0069970Y0183125D01*
X0071630Y0183125D01*
X0073165Y0183761D01*
X0074339Y0184935D01*
X0074975Y0186470D01*
X0074975Y0188130D01*
X0074339Y0189665D01*
X0073165Y0190839D01*
X0072535Y0191100D01*
X0078622Y0191100D01*
X0078507Y0191042D01*
X0077950Y0190637D01*
X0077463Y0190150D01*
X0077058Y0189593D01*
X0076746Y0188979D01*
X0076533Y0188324D01*
X0076425Y0187644D01*
X0076425Y0187300D01*
X0080800Y0187300D01*
X0085175Y0187300D01*
X0085175Y0187644D01*
X0085067Y0188324D01*
X0084854Y0188979D01*
X0084542Y0189593D01*
X0084137Y0190150D01*
X0083650Y0190637D01*
X0083093Y0191042D01*
X0082978Y0191100D01*
X0089065Y0191100D01*
X0088435Y0190839D01*
X0087261Y0189665D01*
X0086625Y0188130D01*
X0086625Y0186470D01*
X0087261Y0184935D01*
X0087600Y0184596D01*
X0087600Y0168324D01*
X0086919Y0167643D01*
X0086222Y0165961D01*
X0086222Y0164139D01*
X0086919Y0162457D01*
X0088207Y0161169D01*
X0089889Y0160472D01*
X0091711Y0160472D01*
X0093393Y0161169D01*
X0094681Y0162457D01*
X0095378Y0164139D01*
X0095378Y0165961D01*
X0094681Y0167643D01*
X0094000Y0168324D01*
X0094000Y0184596D01*
X0094339Y0184935D01*
X0094975Y0186470D01*
X0094975Y0188130D01*
X0094339Y0189665D01*
X0093165Y0190839D01*
X0092535Y0191100D01*
X0099065Y0191100D01*
X0098435Y0190839D01*
X0097261Y0189665D01*
X0096625Y0188130D01*
X0096625Y0186470D01*
X0097261Y0184935D01*
X0098435Y0183761D01*
X0099970Y0183125D01*
X0101630Y0183125D01*
X0103165Y0183761D01*
X0104339Y0184935D01*
X0104975Y0186470D01*
X0104975Y0188130D01*
X0104643Y0188932D01*
X0106625Y0186949D01*
X0106625Y0186470D01*
X0107261Y0184935D01*
X0108435Y0183761D01*
X0109970Y0183125D01*
X0110449Y0183125D01*
X0113987Y0179587D01*
X0115163Y0179100D01*
X0124913Y0179100D01*
X0125090Y0179027D01*
X0126363Y0179027D01*
X0126540Y0179100D01*
X0212975Y0179100D01*
X0214401Y0177673D02*
X0094000Y0177673D01*
X0094000Y0176075D02*
X0216000Y0176075D01*
X0217598Y0174476D02*
X0094000Y0174476D01*
X0094000Y0172878D02*
X0219197Y0172878D01*
X0220795Y0171279D02*
X0094000Y0171279D01*
X0094000Y0169681D02*
X0222394Y0169681D01*
X0223992Y0168082D02*
X0198113Y0168082D01*
X0199408Y0166484D02*
X0225591Y0166484D01*
X0227189Y0164885D02*
X0200000Y0164885D01*
X0200000Y0163287D02*
X0228788Y0163287D01*
X0230386Y0161688D02*
X0212351Y0161688D01*
X0208249Y0161688D02*
X0199479Y0161688D01*
X0189921Y0161688D02*
X0183737Y0161688D01*
X0182200Y0163287D02*
X0189400Y0163287D01*
X0189400Y0164885D02*
X0182200Y0164885D01*
X0181608Y0166484D02*
X0189992Y0166484D01*
X0191287Y0168082D02*
X0180313Y0168082D01*
X0176900Y0164000D02*
X0183100Y0157800D01*
X0210300Y0157800D01*
X0229800Y0157800D01*
X0236800Y0150800D01*
X0244300Y0150800D01*
X0248384Y0148900D02*
X0300216Y0148900D01*
X0300485Y0148251D02*
X0299800Y0149905D01*
X0299800Y0151695D01*
X0300485Y0153349D01*
X0301751Y0154615D01*
X0303405Y0155300D01*
X0305195Y0155300D01*
X0306849Y0154615D01*
X0308115Y0153349D01*
X0308800Y0151695D01*
X0308800Y0149905D01*
X0308115Y0148251D01*
X0306849Y0146985D01*
X0305195Y0146300D01*
X0303405Y0146300D01*
X0301751Y0146985D01*
X0300485Y0148251D01*
X0301434Y0147302D02*
X0247166Y0147302D01*
X0247359Y0144105D02*
X0301241Y0144105D01*
X0300136Y0142506D02*
X0248464Y0142506D01*
X0248800Y0140908D02*
X0299800Y0140908D01*
X0307359Y0144105D02*
X0314776Y0144105D01*
X0314625Y0144470D02*
X0315261Y0142935D01*
X0316435Y0141761D01*
X0317970Y0141125D01*
X0319630Y0141125D01*
X0321165Y0141761D01*
X0322339Y0142935D01*
X0322975Y0144470D01*
X0322975Y0146130D01*
X0322339Y0147665D01*
X0321165Y0148839D01*
X0319630Y0149475D01*
X0317970Y0149475D01*
X0316435Y0148839D01*
X0315261Y0147665D01*
X0314625Y0146130D01*
X0314625Y0144470D01*
X0314625Y0145703D02*
X0235922Y0145703D01*
X0235000Y0147302D02*
X0241434Y0147302D01*
X0241241Y0144105D02*
X0237521Y0144105D01*
X0236300Y0140800D02*
X0230800Y0146300D01*
X0228000Y0149100D01*
X0194700Y0149100D01*
X0189708Y0147302D02*
X0181892Y0147302D01*
X0182200Y0148046D02*
X0181393Y0146098D01*
X0179902Y0144607D01*
X0177954Y0143800D01*
X0175846Y0143800D01*
X0173898Y0144607D01*
X0172407Y0146098D01*
X0171600Y0148046D01*
X0171600Y0150154D01*
X0172407Y0152102D01*
X0173898Y0153593D01*
X0175846Y0154400D01*
X0177954Y0154400D01*
X0179902Y0153593D01*
X0181393Y0152102D01*
X0182200Y0150154D01*
X0182200Y0148046D01*
X0182200Y0148900D02*
X0189400Y0148900D01*
X0189543Y0150499D02*
X0182057Y0150499D01*
X0181395Y0152097D02*
X0190205Y0152097D01*
X0191946Y0153696D02*
X0179654Y0153696D01*
X0181080Y0155294D02*
X0093331Y0155294D01*
X0094930Y0153696D02*
X0174146Y0153696D01*
X0172405Y0152097D02*
X0114977Y0152097D01*
X0116051Y0150499D02*
X0171743Y0150499D01*
X0171600Y0148900D02*
X0116378Y0148900D01*
X0116135Y0147302D02*
X0171908Y0147302D01*
X0172801Y0145703D02*
X0115177Y0145703D01*
X0115000Y0144105D02*
X0175110Y0144105D01*
X0178690Y0144105D02*
X0192910Y0144105D01*
X0190601Y0145703D02*
X0180999Y0145703D01*
X0196490Y0144105D02*
X0227056Y0144105D01*
X0226600Y0145703D02*
X0198799Y0145703D01*
X0197454Y0153696D02*
X0208465Y0153696D01*
X0212135Y0153696D02*
X0229379Y0153696D01*
X0229126Y0152097D02*
X0230977Y0152097D01*
X0232541Y0150499D02*
X0232576Y0150499D01*
X0234139Y0148900D02*
X0234174Y0148900D01*
X0240800Y0155800D02*
X0214300Y0182300D01*
X0213800Y0182800D02*
X0213800Y0189800D01*
X0217169Y0187265D02*
X0220431Y0187265D01*
X0220600Y0185666D02*
X0217000Y0185666D01*
X0217058Y0184068D02*
X0220600Y0184068D01*
X0220600Y0182469D02*
X0218656Y0182469D01*
X0220255Y0180870D02*
X0220600Y0180870D01*
X0223800Y0181300D02*
X0244300Y0160800D01*
X0246196Y0164885D02*
X0292100Y0164885D01*
X0292100Y0166484D02*
X0245639Y0166484D01*
X0247946Y0168082D02*
X0292100Y0168082D01*
X0292100Y0169681D02*
X0248707Y0169681D01*
X0248800Y0171279D02*
X0292100Y0171279D01*
X0292100Y0172878D02*
X0248310Y0172878D01*
X0246988Y0174476D02*
X0292100Y0174476D01*
X0292100Y0176075D02*
X0243551Y0176075D01*
X0244450Y0176100D02*
X0244670Y0176100D01*
X0245401Y0176216D01*
X0246104Y0176444D01*
X0246763Y0176780D01*
X0247362Y0177215D01*
X0247885Y0177738D01*
X0248320Y0178337D01*
X0248656Y0178996D01*
X0248884Y0179699D01*
X0249000Y0180430D01*
X0249000Y0180650D01*
X0244450Y0180650D01*
X0244450Y0176100D01*
X0244450Y0177673D02*
X0244150Y0177673D01*
X0244150Y0179272D02*
X0244450Y0179272D01*
X0244450Y0180870D02*
X0292100Y0180870D01*
X0292100Y0179272D02*
X0248745Y0179272D01*
X0247820Y0177673D02*
X0292100Y0177673D01*
X0292100Y0182469D02*
X0248700Y0182469D01*
X0247679Y0184068D02*
X0292100Y0184068D01*
X0292100Y0185666D02*
X0237000Y0185666D01*
X0237000Y0184068D02*
X0240921Y0184068D01*
X0239900Y0182469D02*
X0237156Y0182469D01*
X0238755Y0180870D02*
X0244150Y0180870D01*
X0244150Y0182469D02*
X0244450Y0182469D01*
X0244450Y0184068D02*
X0244150Y0184068D01*
X0237169Y0187265D02*
X0292100Y0187265D01*
X0292100Y0188863D02*
X0288012Y0188863D01*
X0288150Y0188963D02*
X0288637Y0189450D01*
X0289042Y0190007D01*
X0289354Y0190621D01*
X0289567Y0191276D01*
X0289675Y0191956D01*
X0289675Y0192300D01*
X0285300Y0192300D01*
X0285300Y0192300D01*
X0285300Y0187925D01*
X0285644Y0187925D01*
X0286324Y0188033D01*
X0286979Y0188246D01*
X0287593Y0188558D01*
X0288150Y0188963D01*
X0289273Y0190462D02*
X0291543Y0190462D01*
X0291125Y0192060D02*
X0289675Y0192060D01*
X0289459Y0193659D02*
X0291344Y0193659D01*
X0295300Y0192300D02*
X0295300Y0161300D01*
X0295800Y0160800D01*
X0277200Y0160800D01*
X0272200Y0155800D01*
X0240800Y0155800D01*
X0248633Y0152097D02*
X0299967Y0152097D01*
X0299800Y0150499D02*
X0248800Y0150499D01*
X0248800Y0160090D02*
X0271964Y0160090D01*
X0273563Y0161688D02*
X0248800Y0161688D01*
X0248141Y0163287D02*
X0275161Y0163287D01*
X0277818Y0156893D02*
X0301974Y0156893D01*
X0303391Y0155294D02*
X0276220Y0155294D01*
X0274621Y0153696D02*
X0300832Y0153696D01*
X0305209Y0155294D02*
X0314625Y0155294D01*
X0314941Y0156893D02*
X0306626Y0156893D01*
X0307768Y0153696D02*
X0314946Y0153696D01*
X0316099Y0152097D02*
X0308633Y0152097D01*
X0308800Y0150499D02*
X0323100Y0150499D01*
X0323100Y0152097D02*
X0321501Y0152097D01*
X0322654Y0153696D02*
X0323100Y0153696D01*
X0323100Y0155294D02*
X0322975Y0155294D01*
X0323100Y0156893D02*
X0322659Y0156893D01*
X0329500Y0156575D02*
X0332625Y0153449D01*
X0332625Y0152970D01*
X0333261Y0151435D01*
X0334435Y0150261D01*
X0335970Y0149625D01*
X0337630Y0149625D01*
X0339165Y0150261D01*
X0340339Y0151435D01*
X0340975Y0152970D01*
X0340975Y0154630D01*
X0340643Y0155432D01*
X0344600Y0151475D01*
X0344600Y0136625D01*
X0329402Y0121428D01*
X0329500Y0121663D01*
X0329500Y0156575D01*
X0329500Y0155294D02*
X0330780Y0155294D01*
X0329500Y0153696D02*
X0332379Y0153696D01*
X0332987Y0152097D02*
X0329500Y0152097D01*
X0329500Y0150499D02*
X0334197Y0150499D01*
X0335121Y0147854D02*
X0334507Y0147542D01*
X0333950Y0147137D01*
X0333463Y0146650D01*
X0333058Y0146093D01*
X0332746Y0145479D01*
X0332533Y0144824D01*
X0332425Y0144144D01*
X0332425Y0143800D01*
X0336800Y0143800D01*
X0336800Y0143800D01*
X0336800Y0148175D01*
X0336456Y0148175D01*
X0335776Y0148067D01*
X0335121Y0147854D01*
X0334177Y0147302D02*
X0329500Y0147302D01*
X0329500Y0148900D02*
X0344600Y0148900D01*
X0344600Y0147302D02*
X0339423Y0147302D01*
X0339650Y0147137D02*
X0339093Y0147542D01*
X0338479Y0147854D01*
X0337824Y0148067D01*
X0337144Y0148175D01*
X0336800Y0148175D01*
X0336800Y0143800D01*
X0341175Y0143800D01*
X0341175Y0144144D01*
X0341067Y0144824D01*
X0340854Y0145479D01*
X0340542Y0146093D01*
X0340137Y0146650D01*
X0339650Y0147137D01*
X0340740Y0145703D02*
X0344600Y0145703D01*
X0344600Y0144105D02*
X0341175Y0144105D01*
X0341175Y0143800D02*
X0336800Y0143800D01*
X0336800Y0143800D01*
X0336800Y0143800D01*
X0336800Y0139425D01*
X0337144Y0139425D01*
X0337824Y0139533D01*
X0338479Y0139746D01*
X0339093Y0140058D01*
X0339650Y0140463D01*
X0340137Y0140950D01*
X0340542Y0141507D01*
X0340854Y0142121D01*
X0341067Y0142776D01*
X0341175Y0143456D01*
X0341175Y0143800D01*
X0340980Y0142506D02*
X0344600Y0142506D01*
X0344600Y0140908D02*
X0340095Y0140908D01*
X0336800Y0140908D02*
X0336800Y0140908D01*
X0336800Y0139425D02*
X0336800Y0143800D01*
X0336800Y0143800D01*
X0332425Y0143800D01*
X0332425Y0143456D01*
X0332533Y0142776D01*
X0332746Y0142121D01*
X0333058Y0141507D01*
X0333463Y0140950D01*
X0333950Y0140463D01*
X0334507Y0140058D01*
X0335121Y0139746D01*
X0335776Y0139533D01*
X0336456Y0139425D01*
X0336800Y0139425D01*
X0336800Y0142506D02*
X0336800Y0142506D01*
X0336800Y0144105D02*
X0336800Y0144105D01*
X0336800Y0145703D02*
X0336800Y0145703D01*
X0336800Y0147302D02*
X0336800Y0147302D01*
X0339403Y0150499D02*
X0344600Y0150499D01*
X0343977Y0152097D02*
X0340613Y0152097D01*
X0340975Y0153696D02*
X0342379Y0153696D01*
X0340780Y0155294D02*
X0340700Y0155294D01*
X0336800Y0153800D02*
X0329800Y0160800D01*
X0326300Y0160800D01*
X0326300Y0122300D01*
X0319300Y0115300D01*
X0318800Y0115300D01*
X0316124Y0118529D02*
X0315000Y0118529D01*
X0315000Y0120127D02*
X0319602Y0120127D01*
X0321080Y0121726D02*
X0321200Y0121726D01*
X0322500Y0123324D02*
X0322799Y0123324D01*
X0322975Y0124923D02*
X0323100Y0124923D01*
X0323100Y0126521D02*
X0322813Y0126521D01*
X0323100Y0128120D02*
X0321884Y0128120D01*
X0323100Y0129718D02*
X0315000Y0129718D01*
X0315000Y0128120D02*
X0315716Y0128120D01*
X0315000Y0131317D02*
X0317507Y0131317D01*
X0320093Y0131317D02*
X0323100Y0131317D01*
X0323100Y0132915D02*
X0322319Y0132915D01*
X0322975Y0134514D02*
X0323100Y0134514D01*
X0323100Y0136112D02*
X0322975Y0136112D01*
X0323100Y0137711D02*
X0322293Y0137711D01*
X0323100Y0139309D02*
X0320030Y0139309D01*
X0317570Y0139309D02*
X0311897Y0139309D01*
X0313915Y0137711D02*
X0315307Y0137711D01*
X0311800Y0135300D02*
X0311800Y0110300D01*
X0312800Y0109300D01*
X0304300Y0100800D01*
X0309300Y0095300D02*
X0314300Y0100300D01*
X0328300Y0100300D01*
X0353300Y0125300D01*
X0353300Y0157300D01*
X0336800Y0173800D01*
X0318300Y0192300D01*
X0315300Y0192300D01*
X0320631Y0194494D02*
X0415673Y0194494D01*
X0415684Y0132941D01*
X0412975Y0135651D01*
X0412975Y0136130D01*
X0412339Y0137665D01*
X0411165Y0138839D01*
X0409630Y0139475D01*
X0407970Y0139475D01*
X0406435Y0138839D01*
X0405261Y0137665D01*
X0404625Y0136130D01*
X0404625Y0134470D01*
X0405261Y0132935D01*
X0406435Y0131761D01*
X0407970Y0131125D01*
X0408449Y0131125D01*
X0410432Y0129143D01*
X0409630Y0129475D01*
X0407970Y0129475D01*
X0406435Y0128839D01*
X0406096Y0128500D01*
X0369163Y0128500D01*
X0367987Y0128013D01*
X0328975Y0089000D01*
X0308425Y0089000D01*
X0308800Y0089905D01*
X0308800Y0091695D01*
X0308632Y0092100D01*
X0309937Y0092100D01*
X0311113Y0092587D01*
X0314473Y0095948D01*
X0314425Y0095644D01*
X0314425Y0095300D01*
X0318800Y0095300D01*
X0323175Y0095300D01*
X0323175Y0095644D01*
X0323067Y0096324D01*
X0322854Y0096979D01*
X0322793Y0097100D01*
X0328937Y0097100D01*
X0330113Y0097587D01*
X0355113Y0122587D01*
X0356013Y0123487D01*
X0356500Y0124663D01*
X0356500Y0157937D01*
X0356013Y0159113D01*
X0340975Y0174151D01*
X0340975Y0174630D01*
X0340339Y0176165D01*
X0339165Y0177339D01*
X0337630Y0177975D01*
X0337151Y0177975D01*
X0320631Y0194494D01*
X0321467Y0193659D02*
X0415673Y0193659D01*
X0415673Y0192060D02*
X0323065Y0192060D01*
X0324664Y0190462D02*
X0415674Y0190462D01*
X0415674Y0188863D02*
X0326262Y0188863D01*
X0327861Y0187265D02*
X0415674Y0187265D01*
X0415674Y0185666D02*
X0329459Y0185666D01*
X0331058Y0184068D02*
X0415675Y0184068D01*
X0415675Y0182469D02*
X0332656Y0182469D01*
X0334255Y0180870D02*
X0415675Y0180870D01*
X0415676Y0179272D02*
X0335853Y0179272D01*
X0338358Y0177673D02*
X0415676Y0177673D01*
X0415676Y0176075D02*
X0340376Y0176075D01*
X0340975Y0174476D02*
X0415677Y0174476D01*
X0415677Y0172878D02*
X0342248Y0172878D01*
X0343846Y0171279D02*
X0415677Y0171279D01*
X0415677Y0169681D02*
X0345445Y0169681D01*
X0347043Y0168082D02*
X0415678Y0168082D01*
X0415678Y0166484D02*
X0348642Y0166484D01*
X0350240Y0164885D02*
X0415678Y0164885D01*
X0415679Y0163287D02*
X0351839Y0163287D01*
X0353437Y0161688D02*
X0415679Y0161688D01*
X0415679Y0160090D02*
X0355036Y0160090D01*
X0356270Y0158491D02*
X0406087Y0158491D01*
X0406435Y0158839D02*
X0405261Y0157665D01*
X0404625Y0156130D01*
X0404625Y0154470D01*
X0405261Y0152935D01*
X0406435Y0151761D01*
X0407970Y0151125D01*
X0409630Y0151125D01*
X0411165Y0151761D01*
X0412339Y0152935D01*
X0412975Y0154470D01*
X0412975Y0156130D01*
X0412339Y0157665D01*
X0411165Y0158839D01*
X0409630Y0159475D01*
X0407970Y0159475D01*
X0406435Y0158839D01*
X0404941Y0156893D02*
X0356500Y0156893D01*
X0356500Y0155294D02*
X0404625Y0155294D01*
X0404946Y0153696D02*
X0356500Y0153696D01*
X0356500Y0152097D02*
X0406099Y0152097D01*
X0407970Y0149475D02*
X0406435Y0148839D01*
X0405261Y0147665D01*
X0404625Y0146130D01*
X0404625Y0144470D01*
X0405261Y0142935D01*
X0406435Y0141761D01*
X0407970Y0141125D01*
X0409630Y0141125D01*
X0411165Y0141761D01*
X0412339Y0142935D01*
X0412975Y0144470D01*
X0412975Y0146130D01*
X0412339Y0147665D01*
X0411165Y0148839D01*
X0409630Y0149475D01*
X0407970Y0149475D01*
X0406583Y0148900D02*
X0356500Y0148900D01*
X0356500Y0147302D02*
X0405110Y0147302D01*
X0404625Y0145703D02*
X0356500Y0145703D01*
X0356500Y0144105D02*
X0404776Y0144105D01*
X0405690Y0142506D02*
X0356500Y0142506D01*
X0356500Y0140908D02*
X0415683Y0140908D01*
X0415682Y0142506D02*
X0411910Y0142506D01*
X0412824Y0144105D02*
X0415682Y0144105D01*
X0415682Y0145703D02*
X0412975Y0145703D01*
X0412490Y0147302D02*
X0415681Y0147302D01*
X0415681Y0148900D02*
X0411017Y0148900D01*
X0411501Y0152097D02*
X0415681Y0152097D01*
X0415681Y0150499D02*
X0356500Y0150499D01*
X0347800Y0152800D02*
X0347800Y0135300D01*
X0322800Y0110300D01*
X0313800Y0110300D01*
X0312800Y0109300D01*
X0308600Y0112178D02*
X0308115Y0113349D01*
X0306849Y0114615D01*
X0305195Y0115300D01*
X0303405Y0115300D01*
X0301751Y0114615D01*
X0301136Y0114000D01*
X0291163Y0114000D01*
X0289987Y0113513D01*
X0287987Y0111513D01*
X0287087Y0110613D01*
X0286600Y0109437D01*
X0286600Y0098500D01*
X0279125Y0098500D01*
X0269113Y0108513D01*
X0267937Y0109000D01*
X0248425Y0109000D01*
X0248800Y0109905D01*
X0248800Y0111695D01*
X0248115Y0113349D01*
X0246849Y0114615D01*
X0245195Y0115300D01*
X0243405Y0115300D01*
X0241751Y0114615D01*
X0240485Y0113349D01*
X0239800Y0111695D01*
X0239800Y0109905D01*
X0240175Y0109000D01*
X0240163Y0109000D01*
X0238987Y0108513D01*
X0238087Y0107613D01*
X0235200Y0104725D01*
X0235200Y0106300D01*
X0235200Y0108123D01*
X0232623Y0110700D01*
X0230800Y0110700D01*
X0230800Y0106300D01*
X0230800Y0106300D01*
X0235200Y0106300D01*
X0230800Y0106300D01*
X0230800Y0106300D01*
X0230800Y0106300D01*
X0226400Y0106300D01*
X0226400Y0108123D01*
X0228977Y0110700D01*
X0230800Y0110700D01*
X0230800Y0106300D01*
X0226400Y0106300D01*
X0226400Y0104477D01*
X0227877Y0103000D01*
X0197125Y0103000D01*
X0193099Y0107027D01*
X0193646Y0106800D01*
X0195754Y0106800D01*
X0197702Y0107607D01*
X0199193Y0109098D01*
X0200000Y0111046D01*
X0200000Y0112875D01*
X0205900Y0118775D01*
X0205900Y0117800D01*
X0210300Y0117800D01*
X0210300Y0117800D01*
X0210300Y0122200D01*
X0212123Y0122200D01*
X0214700Y0119623D01*
X0214700Y0117800D01*
X0210300Y0117800D01*
X0210300Y0117800D01*
X0210300Y0117800D01*
X0210300Y0122200D01*
X0209325Y0122200D01*
X0209975Y0122850D01*
X0216810Y0122850D01*
X0217810Y0121850D01*
X0221290Y0121850D01*
X0222290Y0122850D01*
X0240187Y0122850D01*
X0240297Y0122896D01*
X0239800Y0121695D01*
X0239800Y0119905D01*
X0240485Y0118251D01*
X0241751Y0116985D01*
X0243405Y0116300D01*
X0245195Y0116300D01*
X0246849Y0116985D01*
X0248115Y0118251D01*
X0248800Y0119905D01*
X0248800Y0121695D01*
X0248115Y0123349D01*
X0246849Y0124615D01*
X0245195Y0125300D01*
X0243405Y0125300D01*
X0243269Y0125244D01*
X0244325Y0126300D01*
X0245195Y0126300D01*
X0246849Y0126985D01*
X0248115Y0128251D01*
X0248800Y0129905D01*
X0248800Y0131695D01*
X0248218Y0133100D01*
X0300382Y0133100D01*
X0299800Y0131695D01*
X0299800Y0129905D01*
X0300485Y0128251D01*
X0301751Y0126985D01*
X0303405Y0126300D01*
X0305195Y0126300D01*
X0306849Y0126985D01*
X0308115Y0128251D01*
X0308600Y0129422D01*
X0308600Y0122178D01*
X0308115Y0123349D01*
X0306849Y0124615D01*
X0305195Y0125300D01*
X0303405Y0125300D01*
X0301751Y0124615D01*
X0300485Y0123349D01*
X0299800Y0121695D01*
X0299800Y0119905D01*
X0300485Y0118251D01*
X0301751Y0116985D01*
X0303405Y0116300D01*
X0305195Y0116300D01*
X0306849Y0116985D01*
X0308115Y0118251D01*
X0308600Y0119422D01*
X0308600Y0112178D01*
X0308600Y0113733D02*
X0307731Y0113733D01*
X0308600Y0115332D02*
X0214054Y0115332D01*
X0214700Y0115977D02*
X0214700Y0117800D01*
X0210300Y0117800D01*
X0210300Y0113400D01*
X0212123Y0113400D01*
X0214700Y0115977D01*
X0214700Y0116930D02*
X0241884Y0116930D01*
X0240370Y0118529D02*
X0214700Y0118529D01*
X0214195Y0120127D02*
X0239800Y0120127D01*
X0239813Y0121726D02*
X0212597Y0121726D01*
X0210300Y0121726D02*
X0210300Y0121726D01*
X0210300Y0120127D02*
X0210300Y0120127D01*
X0210300Y0118529D02*
X0210300Y0118529D01*
X0210300Y0117800D02*
X0205900Y0117800D01*
X0205900Y0115977D01*
X0208477Y0113400D01*
X0210300Y0113400D01*
X0210300Y0117800D01*
X0210300Y0117800D01*
X0210300Y0116930D02*
X0210300Y0116930D01*
X0210300Y0115332D02*
X0210300Y0115332D01*
X0210300Y0113733D02*
X0210300Y0113733D01*
X0212456Y0113733D02*
X0240869Y0113733D01*
X0239982Y0112134D02*
X0200000Y0112134D01*
X0199789Y0110536D02*
X0228813Y0110536D01*
X0230800Y0110536D02*
X0230800Y0110536D01*
X0230800Y0108937D02*
X0230800Y0108937D01*
X0230800Y0107339D02*
X0230800Y0107339D01*
X0232787Y0110536D02*
X0239800Y0110536D01*
X0240013Y0108937D02*
X0234385Y0108937D01*
X0235200Y0107339D02*
X0237813Y0107339D01*
X0236215Y0105740D02*
X0235200Y0105740D01*
X0240800Y0105800D02*
X0267300Y0105800D01*
X0277800Y0095300D01*
X0289300Y0095300D01*
X0289800Y0095800D01*
X0289800Y0108800D01*
X0291800Y0110800D01*
X0304300Y0110800D01*
X0306716Y0116930D02*
X0308600Y0116930D01*
X0308600Y0118529D02*
X0308230Y0118529D01*
X0315000Y0121726D02*
X0316520Y0121726D01*
X0315100Y0123324D02*
X0315000Y0123324D01*
X0308600Y0123324D02*
X0308125Y0123324D01*
X0308600Y0124923D02*
X0306106Y0124923D01*
X0305729Y0126521D02*
X0308600Y0126521D01*
X0308600Y0128120D02*
X0307984Y0128120D01*
X0302871Y0126521D02*
X0245729Y0126521D01*
X0246106Y0124923D02*
X0302494Y0124923D01*
X0300475Y0123324D02*
X0248125Y0123324D01*
X0248787Y0121726D02*
X0299813Y0121726D01*
X0299800Y0120127D02*
X0248800Y0120127D01*
X0248230Y0118529D02*
X0300370Y0118529D01*
X0301884Y0116930D02*
X0246716Y0116930D01*
X0247731Y0113733D02*
X0290519Y0113733D01*
X0288609Y0112134D02*
X0248618Y0112134D01*
X0248800Y0110536D02*
X0287055Y0110536D01*
X0286600Y0108937D02*
X0268087Y0108937D01*
X0270287Y0107339D02*
X0286600Y0107339D01*
X0286600Y0105740D02*
X0271885Y0105740D01*
X0273484Y0104142D02*
X0286600Y0104142D01*
X0286600Y0102543D02*
X0275082Y0102543D01*
X0276681Y0100945D02*
X0286600Y0100945D01*
X0286600Y0099346D02*
X0278279Y0099346D01*
X0267122Y0092952D02*
X0253673Y0092952D01*
X0253363Y0093263D02*
X0252187Y0093750D01*
X0247714Y0093750D01*
X0246849Y0094615D01*
X0245195Y0095300D01*
X0243405Y0095300D01*
X0241751Y0094615D01*
X0240485Y0093349D01*
X0239800Y0091695D01*
X0239800Y0089905D01*
X0240382Y0088500D01*
X0239663Y0088500D01*
X0238487Y0088013D01*
X0237587Y0087113D01*
X0232475Y0082000D01*
X0221723Y0082000D01*
X0223950Y0084227D01*
X0223950Y0086050D01*
X0223950Y0087873D01*
X0221373Y0090450D01*
X0219550Y0090450D01*
X0219550Y0086050D01*
X0219550Y0086050D01*
X0223950Y0086050D01*
X0219550Y0086050D01*
X0219550Y0086050D01*
X0219550Y0086050D01*
X0215150Y0086050D01*
X0215150Y0087873D01*
X0217727Y0090450D01*
X0219550Y0090450D01*
X0219550Y0086050D01*
X0215150Y0086050D01*
X0215150Y0084227D01*
X0217377Y0082000D01*
X0197686Y0082000D01*
X0197702Y0082007D01*
X0199193Y0083498D01*
X0200000Y0085446D01*
X0200000Y0087554D01*
X0199193Y0089502D01*
X0197702Y0090993D01*
X0195754Y0091800D01*
X0193646Y0091800D01*
X0191698Y0090993D01*
X0190207Y0089502D01*
X0189400Y0087554D01*
X0189400Y0085446D01*
X0190207Y0083498D01*
X0191698Y0082007D01*
X0191714Y0082000D01*
X0180100Y0082000D01*
X0180100Y0082205D01*
X0181393Y0083498D01*
X0182200Y0085446D01*
X0182200Y0087554D01*
X0181393Y0089502D01*
X0179902Y0090993D01*
X0177954Y0091800D01*
X0175846Y0091800D01*
X0173898Y0090993D01*
X0172407Y0089502D01*
X0171600Y0087554D01*
X0171600Y0085446D01*
X0172407Y0083498D01*
X0173700Y0082205D01*
X0173700Y0082000D01*
X0168500Y0082000D01*
X0168500Y0118975D01*
X0169825Y0120300D01*
X0172605Y0120300D01*
X0173898Y0119007D01*
X0175846Y0118200D01*
X0177954Y0118200D01*
X0179902Y0119007D01*
X0181393Y0120498D01*
X0182200Y0122446D01*
X0182200Y0124554D01*
X0181393Y0126502D01*
X0179902Y0127993D01*
X0179644Y0128100D01*
X0181975Y0128100D01*
X0182350Y0127725D01*
X0182350Y0109413D01*
X0182837Y0108237D01*
X0193087Y0097987D01*
X0193987Y0097087D01*
X0195163Y0096600D01*
X0235437Y0096600D01*
X0236613Y0097087D01*
X0239800Y0100275D01*
X0239800Y0099905D01*
X0240485Y0098251D01*
X0241751Y0096985D01*
X0243405Y0096300D01*
X0245195Y0096300D01*
X0246849Y0096985D01*
X0247464Y0097600D01*
X0262475Y0097600D01*
X0276087Y0083987D01*
X0276987Y0083087D01*
X0278163Y0082600D01*
X0300175Y0082600D01*
X0299800Y0081695D01*
X0299800Y0079905D01*
X0300175Y0079000D01*
X0280625Y0079000D01*
X0277513Y0082113D01*
X0276613Y0083013D01*
X0275437Y0083500D01*
X0263125Y0083500D01*
X0253363Y0093263D01*
X0255272Y0091354D02*
X0268721Y0091354D01*
X0270319Y0089755D02*
X0256870Y0089755D01*
X0258469Y0088157D02*
X0271918Y0088157D01*
X0273516Y0086558D02*
X0260067Y0086558D01*
X0261666Y0084960D02*
X0275115Y0084960D01*
X0276087Y0083987D02*
X0276087Y0083987D01*
X0275771Y0083361D02*
X0276713Y0083361D01*
X0277863Y0081763D02*
X0299828Y0081763D01*
X0299800Y0080164D02*
X0279461Y0080164D01*
X0279300Y0075800D02*
X0274800Y0080300D01*
X0261800Y0080300D01*
X0251550Y0090550D01*
X0244550Y0090550D01*
X0244300Y0090800D01*
X0240321Y0092952D02*
X0168500Y0092952D01*
X0168500Y0091354D02*
X0174769Y0091354D01*
X0172660Y0089755D02*
X0168500Y0089755D01*
X0168500Y0088157D02*
X0171850Y0088157D01*
X0171600Y0086558D02*
X0168500Y0086558D01*
X0168500Y0084960D02*
X0171801Y0084960D01*
X0172543Y0083361D02*
X0168500Y0083361D01*
X0162100Y0083361D02*
X0117573Y0083361D01*
X0117573Y0084960D02*
X0162100Y0084960D01*
X0162100Y0086558D02*
X0117573Y0086558D01*
X0117573Y0088157D02*
X0162100Y0088157D01*
X0162100Y0089755D02*
X0117573Y0089755D01*
X0117573Y0091354D02*
X0162100Y0091354D01*
X0162100Y0092952D02*
X0147178Y0092952D01*
X0146738Y0092512D02*
X0147913Y0093687D01*
X0148548Y0095221D01*
X0148548Y0096882D01*
X0147913Y0098416D01*
X0146738Y0099591D01*
X0145204Y0100226D01*
X0143543Y0100226D01*
X0142008Y0099591D01*
X0140834Y0098416D01*
X0140199Y0096882D01*
X0140199Y0095221D01*
X0140834Y0093687D01*
X0142008Y0092512D01*
X0143543Y0091877D01*
X0145204Y0091877D01*
X0146738Y0092512D01*
X0148270Y0094551D02*
X0162100Y0094551D01*
X0162100Y0096149D02*
X0148548Y0096149D01*
X0148189Y0097748D02*
X0162100Y0097748D01*
X0162100Y0099346D02*
X0146983Y0099346D01*
X0141764Y0099346D02*
X0137573Y0099346D01*
X0137573Y0100945D02*
X0162100Y0100945D01*
X0162100Y0102543D02*
X0137573Y0102543D01*
X0137573Y0104142D02*
X0162100Y0104142D01*
X0162100Y0105740D02*
X0137573Y0105740D01*
X0137573Y0107339D02*
X0162100Y0107339D01*
X0162100Y0108937D02*
X0137573Y0108937D01*
X0137573Y0110536D02*
X0162100Y0110536D01*
X0162100Y0112134D02*
X0137573Y0112134D01*
X0137573Y0113733D02*
X0162100Y0113733D01*
X0162100Y0115332D02*
X0137573Y0115332D01*
X0137573Y0116930D02*
X0162100Y0116930D01*
X0162100Y0118529D02*
X0137573Y0118529D01*
X0137573Y0120127D02*
X0162100Y0120127D01*
X0162427Y0121726D02*
X0137573Y0121726D01*
X0137573Y0123324D02*
X0163799Y0123324D01*
X0165397Y0124923D02*
X0137573Y0124923D01*
X0137573Y0126521D02*
X0167432Y0126521D01*
X0168500Y0123500D02*
X0165300Y0120300D01*
X0165300Y0078800D01*
X0114050Y0078800D01*
X0122008Y0092512D02*
X0123543Y0091877D01*
X0125204Y0091877D01*
X0126738Y0092512D01*
X0127913Y0093687D01*
X0128548Y0095221D01*
X0128548Y0096882D01*
X0127913Y0098416D01*
X0127573Y0098756D01*
X0127573Y0108599D01*
X0128181Y0109207D01*
X0128878Y0110889D01*
X0128878Y0112711D01*
X0128181Y0114393D01*
X0126893Y0115681D01*
X0125211Y0116378D01*
X0123389Y0116378D01*
X0121707Y0115681D01*
X0120419Y0114393D01*
X0119722Y0112711D01*
X0119722Y0110889D01*
X0120419Y0109207D01*
X0121173Y0108452D01*
X0121173Y0098756D01*
X0120834Y0098416D01*
X0120199Y0096882D01*
X0120199Y0095221D01*
X0120834Y0093687D01*
X0122008Y0092512D01*
X0121568Y0092952D02*
X0117573Y0092952D01*
X0118270Y0094551D02*
X0120476Y0094551D01*
X0120199Y0096149D02*
X0118548Y0096149D01*
X0118189Y0097748D02*
X0120557Y0097748D01*
X0121173Y0099346D02*
X0116983Y0099346D01*
X0121173Y0100945D02*
X0057681Y0100945D01*
X0059279Y0099346D02*
X0091764Y0099346D01*
X0090557Y0097748D02*
X0060878Y0097748D01*
X0062476Y0096149D02*
X0090199Y0096149D01*
X0090476Y0094551D02*
X0064075Y0094551D01*
X0058221Y0091354D02*
X0031591Y0091354D01*
X0031591Y0092952D02*
X0056622Y0092952D01*
X0055024Y0094551D02*
X0031590Y0094551D01*
X0031590Y0096149D02*
X0053425Y0096149D01*
X0051827Y0097748D02*
X0031590Y0097748D01*
X0031589Y0099346D02*
X0050228Y0099346D01*
X0048630Y0100945D02*
X0031589Y0100945D01*
X0031589Y0102543D02*
X0047031Y0102543D01*
X0045433Y0104142D02*
X0031589Y0104142D01*
X0031588Y0105740D02*
X0043834Y0105740D01*
X0042881Y0107339D02*
X0031588Y0107339D01*
X0031588Y0108937D02*
X0042850Y0108937D01*
X0042850Y0110536D02*
X0031587Y0110536D01*
X0031587Y0112134D02*
X0042850Y0112134D01*
X0042850Y0113733D02*
X0031587Y0113733D01*
X0031587Y0115332D02*
X0042850Y0115332D01*
X0042850Y0116930D02*
X0031586Y0116930D01*
X0031586Y0118529D02*
X0042850Y0118529D01*
X0042850Y0120127D02*
X0031586Y0120127D01*
X0031585Y0121726D02*
X0042850Y0121726D01*
X0042850Y0123324D02*
X0031585Y0123324D01*
X0031585Y0124923D02*
X0042850Y0124923D01*
X0042850Y0126521D02*
X0031584Y0126521D01*
X0031584Y0128120D02*
X0042850Y0128120D01*
X0042850Y0129718D02*
X0031584Y0129718D01*
X0031584Y0131317D02*
X0042850Y0131317D01*
X0042850Y0132915D02*
X0031583Y0132915D01*
X0031583Y0134514D02*
X0042850Y0134514D01*
X0042850Y0136112D02*
X0031583Y0136112D01*
X0031582Y0137711D02*
X0042850Y0137711D01*
X0042850Y0139309D02*
X0031582Y0139309D01*
X0031582Y0140908D02*
X0042850Y0140908D01*
X0042850Y0142506D02*
X0031582Y0142506D01*
X0031581Y0144105D02*
X0042850Y0144105D01*
X0042850Y0145703D02*
X0031581Y0145703D01*
X0031581Y0147302D02*
X0042850Y0147302D01*
X0042850Y0148900D02*
X0031580Y0148900D01*
X0031580Y0150499D02*
X0042850Y0150499D01*
X0042850Y0152097D02*
X0031580Y0152097D01*
X0031580Y0153696D02*
X0042850Y0153696D01*
X0042850Y0155294D02*
X0031579Y0155294D01*
X0031579Y0156893D02*
X0042850Y0156893D01*
X0042850Y0158491D02*
X0031579Y0158491D01*
X0031578Y0160090D02*
X0042850Y0160090D01*
X0042850Y0161688D02*
X0031578Y0161688D01*
X0031578Y0163287D02*
X0042850Y0163287D01*
X0042850Y0164885D02*
X0031577Y0164885D01*
X0031577Y0166484D02*
X0042850Y0166484D01*
X0042850Y0168082D02*
X0031577Y0168082D01*
X0031577Y0169681D02*
X0042850Y0169681D01*
X0042850Y0171279D02*
X0031576Y0171279D01*
X0031576Y0172878D02*
X0042850Y0172878D01*
X0042850Y0174476D02*
X0031576Y0174476D01*
X0031575Y0176075D02*
X0042850Y0176075D01*
X0042850Y0177673D02*
X0031575Y0177673D01*
X0031575Y0179272D02*
X0042850Y0179272D01*
X0042850Y0180870D02*
X0031575Y0180870D01*
X0031574Y0182469D02*
X0042850Y0182469D01*
X0042850Y0184068D02*
X0031574Y0184068D01*
X0031574Y0185666D02*
X0042850Y0185666D01*
X0042850Y0187265D02*
X0031573Y0187265D01*
X0031573Y0188863D02*
X0042850Y0188863D01*
X0042850Y0190462D02*
X0031573Y0190462D01*
X0031573Y0192060D02*
X0043212Y0192060D01*
X0044633Y0193659D02*
X0031572Y0193659D01*
X0051550Y0190050D02*
X0051550Y0181550D01*
X0101800Y0131300D01*
X0133800Y0131300D01*
X0134373Y0130727D01*
X0134373Y0096052D01*
X0130199Y0096149D02*
X0128548Y0096149D01*
X0128270Y0094551D02*
X0130476Y0094551D01*
X0131568Y0092952D02*
X0127178Y0092952D01*
X0124373Y0096052D02*
X0124373Y0111727D01*
X0124300Y0111800D01*
X0120146Y0113733D02*
X0049250Y0113733D01*
X0049250Y0112134D02*
X0119722Y0112134D01*
X0119868Y0110536D02*
X0049250Y0110536D01*
X0049688Y0108937D02*
X0120688Y0108937D01*
X0121173Y0107339D02*
X0051287Y0107339D01*
X0052885Y0105740D02*
X0121173Y0105740D01*
X0121173Y0104142D02*
X0054484Y0104142D01*
X0056082Y0102543D02*
X0121173Y0102543D01*
X0127573Y0102543D02*
X0131173Y0102543D01*
X0131173Y0100945D02*
X0127573Y0100945D01*
X0127573Y0099346D02*
X0131173Y0099346D01*
X0130557Y0097748D02*
X0128189Y0097748D01*
X0127573Y0104142D02*
X0131173Y0104142D01*
X0131173Y0105740D02*
X0127573Y0105740D01*
X0127573Y0107339D02*
X0131173Y0107339D01*
X0131173Y0108937D02*
X0127912Y0108937D01*
X0128732Y0110536D02*
X0131173Y0110536D01*
X0131173Y0112134D02*
X0128878Y0112134D01*
X0128454Y0113733D02*
X0131173Y0113733D01*
X0131173Y0115332D02*
X0127243Y0115332D01*
X0131173Y0116930D02*
X0049250Y0116930D01*
X0049250Y0115332D02*
X0121357Y0115332D01*
X0131173Y0118529D02*
X0049250Y0118529D01*
X0049250Y0120127D02*
X0131173Y0120127D01*
X0131173Y0121726D02*
X0049250Y0121726D01*
X0049250Y0123324D02*
X0131173Y0123324D01*
X0131173Y0124923D02*
X0049250Y0124923D01*
X0049250Y0126521D02*
X0131173Y0126521D01*
X0133800Y0131300D02*
X0183300Y0131300D01*
X0185550Y0129050D01*
X0185550Y0110050D01*
X0195800Y0099800D01*
X0234800Y0099800D01*
X0240800Y0105800D01*
X0244300Y0100800D02*
X0263800Y0100800D01*
X0278800Y0085800D01*
X0330300Y0085800D01*
X0369800Y0125300D01*
X0408800Y0125300D01*
X0411800Y0119800D02*
X0414800Y0122800D01*
X0414800Y0129300D01*
X0408800Y0135300D01*
X0412293Y0137711D02*
X0415683Y0137711D01*
X0415683Y0139309D02*
X0410030Y0139309D01*
X0407570Y0139309D02*
X0356500Y0139309D01*
X0356500Y0137711D02*
X0405307Y0137711D01*
X0404625Y0136112D02*
X0356500Y0136112D01*
X0356500Y0134514D02*
X0404625Y0134514D01*
X0405281Y0132915D02*
X0356500Y0132915D01*
X0356500Y0131317D02*
X0407507Y0131317D01*
X0409856Y0129718D02*
X0356500Y0129718D01*
X0356500Y0128120D02*
X0368245Y0128120D01*
X0366496Y0126521D02*
X0356500Y0126521D01*
X0356500Y0124923D02*
X0364897Y0124923D01*
X0363299Y0123324D02*
X0355850Y0123324D01*
X0354251Y0121726D02*
X0361700Y0121726D01*
X0360102Y0120127D02*
X0352653Y0120127D01*
X0351054Y0118529D02*
X0358503Y0118529D01*
X0356905Y0116930D02*
X0349456Y0116930D01*
X0347857Y0115332D02*
X0355306Y0115332D01*
X0353708Y0113733D02*
X0346258Y0113733D01*
X0344660Y0112134D02*
X0352109Y0112134D01*
X0350511Y0110536D02*
X0343061Y0110536D01*
X0341463Y0108937D02*
X0348912Y0108937D01*
X0347313Y0107339D02*
X0339864Y0107339D01*
X0338266Y0105740D02*
X0345715Y0105740D01*
X0344116Y0104142D02*
X0336667Y0104142D01*
X0335069Y0102543D02*
X0342518Y0102543D01*
X0340919Y0100945D02*
X0333470Y0100945D01*
X0331872Y0099346D02*
X0339321Y0099346D01*
X0337722Y0097748D02*
X0330273Y0097748D01*
X0336124Y0096149D02*
X0323095Y0096149D01*
X0323175Y0095300D02*
X0318800Y0095300D01*
X0318800Y0095300D01*
X0318800Y0090925D01*
X0319144Y0090925D01*
X0319824Y0091033D01*
X0320479Y0091246D01*
X0321093Y0091558D01*
X0321650Y0091963D01*
X0322137Y0092450D01*
X0322542Y0093007D01*
X0322854Y0093621D01*
X0323067Y0094276D01*
X0323175Y0094956D01*
X0323175Y0095300D01*
X0323111Y0094551D02*
X0334525Y0094551D01*
X0332927Y0092952D02*
X0322502Y0092952D01*
X0320692Y0091354D02*
X0331328Y0091354D01*
X0329730Y0089755D02*
X0308738Y0089755D01*
X0308800Y0091354D02*
X0316908Y0091354D01*
X0317121Y0091246D02*
X0317776Y0091033D01*
X0318456Y0090925D01*
X0318800Y0090925D01*
X0318800Y0095300D01*
X0318800Y0095300D01*
X0318800Y0095300D01*
X0314425Y0095300D01*
X0314425Y0094956D01*
X0314533Y0094276D01*
X0314746Y0093621D01*
X0315058Y0093007D01*
X0315463Y0092450D01*
X0315950Y0091963D01*
X0316507Y0091558D01*
X0317121Y0091246D01*
X0318800Y0091354D02*
X0318800Y0091354D01*
X0318800Y0092952D02*
X0318800Y0092952D01*
X0318800Y0094551D02*
X0318800Y0094551D01*
X0315098Y0092952D02*
X0311478Y0092952D01*
X0313076Y0094551D02*
X0314489Y0094551D01*
X0309300Y0095300D02*
X0289300Y0095300D01*
X0265524Y0094551D02*
X0246913Y0094551D01*
X0241687Y0094551D02*
X0168500Y0094551D01*
X0168500Y0096149D02*
X0263925Y0096149D01*
X0247800Y0085300D02*
X0266800Y0066300D01*
X0335300Y0066300D01*
X0370300Y0101300D01*
X0373362Y0104142D02*
X0404761Y0104142D01*
X0404625Y0104470D02*
X0405261Y0102935D01*
X0406435Y0101761D01*
X0407970Y0101125D01*
X0409630Y0101125D01*
X0411165Y0101761D01*
X0412339Y0102935D01*
X0412975Y0104470D01*
X0412975Y0106130D01*
X0412339Y0107665D01*
X0411165Y0108839D01*
X0409630Y0109475D01*
X0407970Y0109475D01*
X0406435Y0108839D01*
X0405261Y0107665D01*
X0404625Y0106130D01*
X0404625Y0104470D01*
X0404625Y0105740D02*
X0368766Y0105740D01*
X0369470Y0105475D02*
X0367935Y0104839D01*
X0366761Y0103665D01*
X0366125Y0102130D01*
X0366125Y0101651D01*
X0333975Y0069500D01*
X0308632Y0069500D01*
X0308800Y0069905D01*
X0308800Y0071695D01*
X0308425Y0072600D01*
X0334937Y0072600D01*
X0336113Y0073087D01*
X0337013Y0073987D01*
X0379625Y0116600D01*
X0404820Y0116600D01*
X0404625Y0116130D01*
X0404625Y0114470D01*
X0405261Y0112935D01*
X0406435Y0111761D01*
X0407970Y0111125D01*
X0409630Y0111125D01*
X0411165Y0111761D01*
X0412339Y0112935D01*
X0412975Y0114470D01*
X0412975Y0116130D01*
X0412730Y0116722D01*
X0413613Y0117087D01*
X0414513Y0117987D01*
X0415687Y0119161D01*
X0415700Y0046600D01*
X0305919Y0046600D01*
X0306849Y0046985D01*
X0308115Y0048251D01*
X0308800Y0049905D01*
X0308800Y0051695D01*
X0308425Y0052600D01*
X0345437Y0052600D01*
X0346613Y0053087D01*
X0366457Y0072932D01*
X0366125Y0072130D01*
X0366125Y0070470D01*
X0366219Y0070244D01*
X0360102Y0064128D01*
X0359139Y0064128D01*
X0357457Y0063431D01*
X0356169Y0062143D01*
X0355472Y0060461D01*
X0355472Y0058639D01*
X0356169Y0056957D01*
X0357457Y0055669D01*
X0359139Y0054972D01*
X0360961Y0054972D01*
X0362643Y0055669D01*
X0363931Y0056957D01*
X0364628Y0058639D01*
X0364628Y0059602D01*
X0366125Y0061100D01*
X0366125Y0060470D01*
X0366761Y0058935D01*
X0367935Y0057761D01*
X0369470Y0057125D01*
X0371130Y0057125D01*
X0372665Y0057761D01*
X0373839Y0058935D01*
X0374475Y0060470D01*
X0374475Y0062130D01*
X0373839Y0063665D01*
X0372665Y0064839D01*
X0371130Y0065475D01*
X0370500Y0065475D01*
X0373013Y0067987D01*
X0373099Y0068195D01*
X0373839Y0068935D01*
X0374475Y0070470D01*
X0374475Y0072130D01*
X0373839Y0073665D01*
X0372665Y0074839D01*
X0371130Y0075475D01*
X0369470Y0075475D01*
X0368668Y0075143D01*
X0370651Y0077125D01*
X0371130Y0077125D01*
X0372665Y0077761D01*
X0373839Y0078935D01*
X0374475Y0080470D01*
X0374475Y0082130D01*
X0373839Y0083665D01*
X0372665Y0084839D01*
X0371130Y0085475D01*
X0369470Y0085475D01*
X0367935Y0084839D01*
X0366761Y0083665D01*
X0366125Y0082130D01*
X0366125Y0081651D01*
X0343475Y0059000D01*
X0308425Y0059000D01*
X0308800Y0059905D01*
X0308800Y0061695D01*
X0308218Y0063100D01*
X0335937Y0063100D01*
X0337113Y0063587D01*
X0366121Y0092596D01*
X0366033Y0092324D01*
X0365925Y0091644D01*
X0365925Y0091300D01*
X0370300Y0091300D01*
X0370300Y0091300D01*
X0370300Y0095675D01*
X0370644Y0095675D01*
X0371324Y0095567D01*
X0371979Y0095354D01*
X0372593Y0095042D01*
X0373150Y0094637D01*
X0373637Y0094150D01*
X0374042Y0093593D01*
X0374354Y0092979D01*
X0374567Y0092324D01*
X0374675Y0091644D01*
X0374675Y0091300D01*
X0370300Y0091300D01*
X0370300Y0091300D01*
X0370300Y0095675D01*
X0369956Y0095675D01*
X0369276Y0095567D01*
X0369004Y0095479D01*
X0370651Y0097125D01*
X0371130Y0097125D01*
X0372665Y0097761D01*
X0373839Y0098935D01*
X0374475Y0100470D01*
X0374475Y0102130D01*
X0373839Y0103665D01*
X0372665Y0104839D01*
X0371130Y0105475D01*
X0369470Y0105475D01*
X0370364Y0107339D02*
X0405126Y0107339D01*
X0406672Y0108937D02*
X0371963Y0108937D01*
X0373561Y0110536D02*
X0415688Y0110536D01*
X0415688Y0112134D02*
X0411539Y0112134D01*
X0412670Y0113733D02*
X0415688Y0113733D01*
X0415687Y0115332D02*
X0412975Y0115332D01*
X0413233Y0116930D02*
X0415687Y0116930D01*
X0415687Y0118529D02*
X0415054Y0118529D01*
X0411800Y0119800D02*
X0378300Y0119800D01*
X0334300Y0075800D01*
X0279300Y0075800D01*
X0274800Y0070800D02*
X0272300Y0073300D01*
X0274800Y0070800D02*
X0304300Y0070800D01*
X0308800Y0070573D02*
X0335048Y0070573D01*
X0336646Y0072172D02*
X0308603Y0072172D01*
X0308433Y0062581D02*
X0347055Y0062581D01*
X0348654Y0064179D02*
X0337705Y0064179D01*
X0339303Y0065778D02*
X0350252Y0065778D01*
X0351851Y0067376D02*
X0340902Y0067376D01*
X0342500Y0068975D02*
X0353449Y0068975D01*
X0355048Y0070573D02*
X0344099Y0070573D01*
X0345697Y0072172D02*
X0356646Y0072172D01*
X0358245Y0073770D02*
X0347296Y0073770D01*
X0348894Y0075369D02*
X0359843Y0075369D01*
X0361442Y0076967D02*
X0350493Y0076967D01*
X0352091Y0078566D02*
X0363040Y0078566D01*
X0364639Y0080164D02*
X0353690Y0080164D01*
X0355288Y0081763D02*
X0366125Y0081763D01*
X0366635Y0083361D02*
X0356887Y0083361D01*
X0358485Y0084960D02*
X0368226Y0084960D01*
X0368621Y0087246D02*
X0369276Y0087033D01*
X0369956Y0086925D01*
X0370300Y0086925D01*
X0370644Y0086925D01*
X0371324Y0087033D01*
X0371979Y0087246D01*
X0372593Y0087558D01*
X0373150Y0087963D01*
X0373637Y0088450D01*
X0374042Y0089007D01*
X0374354Y0089621D01*
X0374567Y0090276D01*
X0374675Y0090956D01*
X0374675Y0091300D01*
X0370300Y0091300D01*
X0370300Y0086925D01*
X0370300Y0091300D01*
X0370300Y0091300D01*
X0370300Y0091300D01*
X0365925Y0091300D01*
X0365925Y0090956D01*
X0366033Y0090276D01*
X0366246Y0089621D01*
X0366558Y0089007D01*
X0366963Y0088450D01*
X0367450Y0087963D01*
X0368007Y0087558D01*
X0368621Y0087246D01*
X0367256Y0088157D02*
X0361682Y0088157D01*
X0360084Y0086558D02*
X0404802Y0086558D01*
X0404625Y0086130D02*
X0404625Y0084470D01*
X0405261Y0082935D01*
X0406435Y0081761D01*
X0407970Y0081125D01*
X0409630Y0081125D01*
X0411165Y0081761D01*
X0412339Y0082935D01*
X0412975Y0084470D01*
X0412975Y0086130D01*
X0412339Y0087665D01*
X0411165Y0088839D01*
X0409630Y0089475D01*
X0407970Y0089475D01*
X0406435Y0088839D01*
X0405261Y0087665D01*
X0404625Y0086130D01*
X0404625Y0084960D02*
X0372374Y0084960D01*
X0373965Y0083361D02*
X0405084Y0083361D01*
X0406433Y0081763D02*
X0374475Y0081763D01*
X0374348Y0080164D02*
X0415694Y0080164D01*
X0415694Y0078566D02*
X0411438Y0078566D01*
X0411165Y0078839D02*
X0409630Y0079475D01*
X0407970Y0079475D01*
X0406435Y0078839D01*
X0405261Y0077665D01*
X0404625Y0076130D01*
X0404625Y0074470D01*
X0405261Y0072935D01*
X0406435Y0071761D01*
X0407970Y0071125D01*
X0409630Y0071125D01*
X0411165Y0071761D01*
X0412339Y0072935D01*
X0412975Y0074470D01*
X0412975Y0076130D01*
X0412339Y0077665D01*
X0411165Y0078839D01*
X0412628Y0076967D02*
X0415694Y0076967D01*
X0415695Y0075369D02*
X0412975Y0075369D01*
X0412685Y0073770D02*
X0415695Y0073770D01*
X0415695Y0072172D02*
X0411576Y0072172D01*
X0415696Y0070573D02*
X0374475Y0070573D01*
X0374458Y0072172D02*
X0406024Y0072172D01*
X0404915Y0073770D02*
X0373734Y0073770D01*
X0371386Y0075369D02*
X0404625Y0075369D01*
X0404972Y0076967D02*
X0370493Y0076967D01*
X0369214Y0075369D02*
X0368894Y0075369D01*
X0366142Y0072172D02*
X0365697Y0072172D01*
X0366125Y0070573D02*
X0364099Y0070573D01*
X0364949Y0068975D02*
X0362500Y0068975D01*
X0363351Y0067376D02*
X0360902Y0067376D01*
X0361752Y0065778D02*
X0359303Y0065778D01*
X0360154Y0064179D02*
X0357705Y0064179D01*
X0356606Y0062581D02*
X0356106Y0062581D01*
X0355688Y0060982D02*
X0354508Y0060982D01*
X0355472Y0059384D02*
X0352909Y0059384D01*
X0351311Y0057785D02*
X0355826Y0057785D01*
X0356939Y0056187D02*
X0349712Y0056187D01*
X0348114Y0054588D02*
X0367684Y0054588D01*
X0367935Y0054839D02*
X0366761Y0053665D01*
X0366125Y0052130D01*
X0366125Y0050470D01*
X0366761Y0048935D01*
X0367935Y0047761D01*
X0369470Y0047125D01*
X0371130Y0047125D01*
X0372665Y0047761D01*
X0373839Y0048935D01*
X0374475Y0050470D01*
X0374475Y0052130D01*
X0373839Y0053665D01*
X0372665Y0054839D01*
X0371130Y0055475D01*
X0369470Y0055475D01*
X0367935Y0054839D01*
X0366481Y0052990D02*
X0346377Y0052990D01*
X0344800Y0055800D02*
X0370300Y0081300D01*
X0373470Y0078566D02*
X0406162Y0078566D01*
X0411167Y0081763D02*
X0415693Y0081763D01*
X0415693Y0083361D02*
X0412516Y0083361D01*
X0412975Y0084960D02*
X0415693Y0084960D01*
X0415693Y0086558D02*
X0412798Y0086558D01*
X0411847Y0088157D02*
X0415692Y0088157D01*
X0415692Y0089755D02*
X0374398Y0089755D01*
X0374675Y0091354D02*
X0407418Y0091354D01*
X0407970Y0091125D02*
X0409630Y0091125D01*
X0411165Y0091761D01*
X0412339Y0092935D01*
X0412975Y0094470D01*
X0412975Y0096130D01*
X0412339Y0097665D01*
X0411165Y0098839D01*
X0409630Y0099475D01*
X0407970Y0099475D01*
X0406435Y0098839D01*
X0405261Y0097665D01*
X0404625Y0096130D01*
X0404625Y0094470D01*
X0405261Y0092935D01*
X0406435Y0091761D01*
X0407970Y0091125D01*
X0410182Y0091354D02*
X0415692Y0091354D01*
X0415691Y0092952D02*
X0412346Y0092952D01*
X0412975Y0094551D02*
X0415691Y0094551D01*
X0415691Y0096149D02*
X0412967Y0096149D01*
X0412256Y0097748D02*
X0415691Y0097748D01*
X0415690Y0099346D02*
X0409940Y0099346D01*
X0407660Y0099346D02*
X0374010Y0099346D01*
X0374475Y0100945D02*
X0415690Y0100945D01*
X0415690Y0102543D02*
X0411947Y0102543D01*
X0412839Y0104142D02*
X0415689Y0104142D01*
X0415689Y0105740D02*
X0412975Y0105740D01*
X0412474Y0107339D02*
X0415689Y0107339D01*
X0415689Y0108937D02*
X0410928Y0108937D01*
X0406061Y0112134D02*
X0375160Y0112134D01*
X0376758Y0113733D02*
X0404930Y0113733D01*
X0404625Y0115332D02*
X0378357Y0115332D01*
X0374304Y0102543D02*
X0405652Y0102543D01*
X0405344Y0097748D02*
X0372634Y0097748D01*
X0369675Y0096149D02*
X0404633Y0096149D01*
X0404625Y0094551D02*
X0373236Y0094551D01*
X0374363Y0092952D02*
X0405254Y0092952D01*
X0405753Y0088157D02*
X0373344Y0088157D01*
X0370300Y0088157D02*
X0370300Y0088157D01*
X0370300Y0089755D02*
X0370300Y0089755D01*
X0370300Y0091354D02*
X0370300Y0091354D01*
X0370300Y0092952D02*
X0370300Y0092952D01*
X0370300Y0094551D02*
X0370300Y0094551D01*
X0365925Y0091354D02*
X0364879Y0091354D01*
X0366202Y0089755D02*
X0363281Y0089755D01*
X0355828Y0091354D02*
X0354379Y0091354D01*
X0354230Y0089755D02*
X0352781Y0089755D01*
X0352631Y0088157D02*
X0351182Y0088157D01*
X0351033Y0086558D02*
X0349584Y0086558D01*
X0349434Y0084960D02*
X0347985Y0084960D01*
X0347836Y0083361D02*
X0346387Y0083361D01*
X0346237Y0081763D02*
X0344788Y0081763D01*
X0344639Y0080164D02*
X0343190Y0080164D01*
X0343040Y0078566D02*
X0341591Y0078566D01*
X0341442Y0076967D02*
X0339993Y0076967D01*
X0339843Y0075369D02*
X0338394Y0075369D01*
X0338245Y0073770D02*
X0336796Y0073770D01*
X0345457Y0060982D02*
X0308800Y0060982D01*
X0308584Y0059384D02*
X0343858Y0059384D01*
X0344800Y0055800D02*
X0272300Y0055800D01*
X0247300Y0080800D01*
X0244300Y0080800D01*
X0240355Y0078566D02*
X0238091Y0078566D01*
X0239690Y0080164D02*
X0239800Y0080164D01*
X0241794Y0076967D02*
X0236493Y0076967D01*
X0233800Y0078800D02*
X0177300Y0078800D01*
X0176900Y0079200D01*
X0176900Y0086500D01*
X0182200Y0086558D02*
X0189400Y0086558D01*
X0189601Y0084960D02*
X0181999Y0084960D01*
X0181257Y0083361D02*
X0190343Y0083361D01*
X0189650Y0088157D02*
X0181950Y0088157D01*
X0181140Y0089755D02*
X0190460Y0089755D01*
X0192569Y0091354D02*
X0179031Y0091354D01*
X0168500Y0097748D02*
X0193327Y0097748D01*
X0193087Y0097987D02*
X0193087Y0097987D01*
X0191728Y0099346D02*
X0168500Y0099346D01*
X0168500Y0100945D02*
X0190130Y0100945D01*
X0188531Y0102543D02*
X0168500Y0102543D01*
X0168500Y0104142D02*
X0186933Y0104142D01*
X0185334Y0105740D02*
X0168500Y0105740D01*
X0168500Y0107339D02*
X0174545Y0107339D01*
X0173898Y0107607D02*
X0175846Y0106800D01*
X0177954Y0106800D01*
X0179902Y0107607D01*
X0181393Y0109098D01*
X0182200Y0111046D01*
X0182200Y0113154D01*
X0181393Y0115102D01*
X0179902Y0116593D01*
X0177954Y0117400D01*
X0175846Y0117400D01*
X0173898Y0116593D01*
X0172407Y0115102D01*
X0171600Y0113154D01*
X0171600Y0111046D01*
X0172407Y0109098D01*
X0173898Y0107607D01*
X0172567Y0108937D02*
X0168500Y0108937D01*
X0168500Y0110536D02*
X0171811Y0110536D01*
X0171600Y0112134D02*
X0168500Y0112134D01*
X0168500Y0113733D02*
X0171840Y0113733D01*
X0172636Y0115332D02*
X0168500Y0115332D01*
X0168500Y0116930D02*
X0174711Y0116930D01*
X0175053Y0118529D02*
X0168500Y0118529D01*
X0169653Y0120127D02*
X0172778Y0120127D01*
X0176900Y0123500D02*
X0168500Y0123500D01*
X0178747Y0118529D02*
X0182350Y0118529D01*
X0182350Y0120127D02*
X0181022Y0120127D01*
X0181902Y0121726D02*
X0182350Y0121726D01*
X0182350Y0123324D02*
X0182200Y0123324D01*
X0182047Y0124923D02*
X0182350Y0124923D01*
X0182350Y0126521D02*
X0181374Y0126521D01*
X0182350Y0116930D02*
X0179089Y0116930D01*
X0181164Y0115332D02*
X0182350Y0115332D01*
X0182350Y0113733D02*
X0181960Y0113733D01*
X0182200Y0112134D02*
X0182350Y0112134D01*
X0182350Y0110536D02*
X0181989Y0110536D01*
X0182547Y0108937D02*
X0181233Y0108937D01*
X0179255Y0107339D02*
X0183736Y0107339D01*
X0194385Y0105740D02*
X0226400Y0105740D01*
X0226400Y0107339D02*
X0197055Y0107339D01*
X0199033Y0108937D02*
X0227215Y0108937D01*
X0226736Y0104142D02*
X0195984Y0104142D01*
X0194700Y0112100D02*
X0208650Y0126050D01*
X0219550Y0126050D01*
X0239550Y0126050D01*
X0244300Y0130800D01*
X0248295Y0132915D02*
X0300305Y0132915D01*
X0299800Y0131317D02*
X0248800Y0131317D01*
X0248723Y0129718D02*
X0299877Y0129718D01*
X0300616Y0128120D02*
X0247984Y0128120D01*
X0244300Y0140800D02*
X0236300Y0140800D01*
X0231667Y0140908D02*
X0115000Y0140908D01*
X0115000Y0142506D02*
X0228654Y0142506D01*
X0205900Y0118529D02*
X0205654Y0118529D01*
X0205900Y0116930D02*
X0204055Y0116930D01*
X0202457Y0115332D02*
X0206546Y0115332D01*
X0208144Y0113733D02*
X0200858Y0113733D01*
X0237273Y0097748D02*
X0240988Y0097748D01*
X0240031Y0099346D02*
X0238872Y0099346D01*
X0239800Y0091354D02*
X0196831Y0091354D01*
X0198940Y0089755D02*
X0217033Y0089755D01*
X0215434Y0088157D02*
X0199750Y0088157D01*
X0200000Y0086558D02*
X0215150Y0086558D01*
X0215150Y0084960D02*
X0199799Y0084960D01*
X0199057Y0083361D02*
X0216016Y0083361D01*
X0219550Y0086558D02*
X0219550Y0086558D01*
X0219550Y0088157D02*
X0219550Y0088157D01*
X0219550Y0089755D02*
X0219550Y0089755D01*
X0222067Y0089755D02*
X0239862Y0089755D01*
X0238835Y0088157D02*
X0223666Y0088157D01*
X0223950Y0086558D02*
X0237033Y0086558D01*
X0235434Y0084960D02*
X0223950Y0084960D01*
X0223084Y0083361D02*
X0233836Y0083361D01*
X0233800Y0078800D02*
X0240300Y0085300D01*
X0247800Y0085300D01*
X0248206Y0075369D02*
X0045798Y0075369D01*
X0044200Y0073770D02*
X0240906Y0073770D01*
X0240485Y0073349D02*
X0239800Y0071695D01*
X0239800Y0069905D01*
X0240485Y0068251D01*
X0241751Y0066985D01*
X0243405Y0066300D01*
X0244275Y0066300D01*
X0245331Y0065244D01*
X0245195Y0065300D01*
X0243405Y0065300D01*
X0241751Y0064615D01*
X0240485Y0063349D01*
X0240145Y0062529D01*
X0240066Y0063129D01*
X0239836Y0063990D01*
X0239494Y0064814D01*
X0239049Y0065586D01*
X0238506Y0066293D01*
X0237876Y0066923D01*
X0237169Y0067466D01*
X0236397Y0067912D01*
X0235573Y0068253D01*
X0234712Y0068484D01*
X0233828Y0068600D01*
X0233567Y0068600D01*
X0233567Y0061984D01*
X0233198Y0061984D01*
X0233198Y0061616D01*
X0226583Y0061616D01*
X0226583Y0061354D01*
X0226699Y0060471D01*
X0226930Y0059610D01*
X0227271Y0058786D01*
X0227717Y0058014D01*
X0228259Y0057307D01*
X0228890Y0056677D01*
X0229597Y0056134D01*
X0230369Y0055688D01*
X0231192Y0055347D01*
X0232053Y0055116D01*
X0232937Y0055000D01*
X0233198Y0055000D01*
X0233198Y0061616D01*
X0233567Y0061616D01*
X0233567Y0055000D01*
X0233828Y0055000D01*
X0234712Y0055116D01*
X0235573Y0055347D01*
X0236397Y0055688D01*
X0237169Y0056134D01*
X0237876Y0056677D01*
X0238506Y0057307D01*
X0239049Y0058014D01*
X0239494Y0058786D01*
X0239836Y0059610D01*
X0239870Y0059737D01*
X0240485Y0058251D01*
X0241751Y0056985D01*
X0243405Y0056300D01*
X0245195Y0056300D01*
X0246849Y0056985D01*
X0248115Y0058251D01*
X0248800Y0059905D01*
X0248800Y0061695D01*
X0248744Y0061831D01*
X0252722Y0057852D01*
X0252722Y0056889D01*
X0253419Y0055207D01*
X0254707Y0053919D01*
X0256389Y0053222D01*
X0258211Y0053222D01*
X0259893Y0053919D01*
X0261181Y0055207D01*
X0261878Y0056889D01*
X0261878Y0058711D01*
X0261181Y0060393D01*
X0259893Y0061681D01*
X0258211Y0062378D01*
X0257248Y0062378D01*
X0248800Y0070825D01*
X0248800Y0071695D01*
X0248115Y0073349D01*
X0246849Y0074615D01*
X0245195Y0075300D01*
X0243405Y0075300D01*
X0241751Y0074615D01*
X0240485Y0073349D01*
X0239997Y0072172D02*
X0042700Y0072172D01*
X0042700Y0070573D02*
X0239800Y0070573D01*
X0240185Y0068975D02*
X0042700Y0068975D01*
X0042700Y0067376D02*
X0052460Y0067376D01*
X0050861Y0065778D02*
X0042700Y0065778D01*
X0042700Y0064179D02*
X0050059Y0064179D01*
X0049617Y0062581D02*
X0042700Y0062581D01*
X0042700Y0060982D02*
X0048470Y0060982D01*
X0046871Y0059384D02*
X0042700Y0059384D01*
X0042700Y0057785D02*
X0045273Y0057785D01*
X0043674Y0056187D02*
X0042700Y0056187D01*
X0042700Y0054588D02*
X0042996Y0054588D01*
X0042900Y0052990D02*
X0042700Y0052990D01*
X0042700Y0051391D02*
X0042900Y0051391D01*
X0042900Y0049793D02*
X0042700Y0049793D01*
X0042646Y0048194D02*
X0042954Y0048194D01*
X0052646Y0048194D02*
X0052954Y0048194D01*
X0052900Y0049793D02*
X0052700Y0049793D01*
X0052738Y0051391D02*
X0053362Y0051391D01*
X0054337Y0052990D02*
X0054560Y0052990D01*
X0055935Y0054588D02*
X0241724Y0054588D01*
X0240336Y0052990D02*
X0061040Y0052990D01*
X0062238Y0051391D02*
X0239800Y0051391D01*
X0239847Y0049793D02*
X0062700Y0049793D01*
X0062646Y0048194D02*
X0240542Y0048194D01*
X0248058Y0048194D02*
X0300542Y0048194D01*
X0299847Y0049793D02*
X0248753Y0049793D01*
X0248800Y0051391D02*
X0299800Y0051391D01*
X0308058Y0048194D02*
X0367502Y0048194D01*
X0366406Y0049793D02*
X0308753Y0049793D01*
X0308800Y0051391D02*
X0366125Y0051391D01*
X0372916Y0054588D02*
X0415698Y0054588D01*
X0415699Y0052990D02*
X0374119Y0052990D01*
X0374475Y0051391D02*
X0415699Y0051391D01*
X0415699Y0049793D02*
X0374194Y0049793D01*
X0373098Y0048194D02*
X0415700Y0048194D01*
X0415698Y0056187D02*
X0363161Y0056187D01*
X0364274Y0057785D02*
X0367911Y0057785D01*
X0366575Y0059384D02*
X0364628Y0059384D01*
X0366008Y0060982D02*
X0366125Y0060982D01*
X0360050Y0059550D02*
X0370300Y0069800D01*
X0370300Y0071300D01*
X0373856Y0068975D02*
X0415696Y0068975D01*
X0415696Y0067376D02*
X0372402Y0067376D01*
X0370803Y0065778D02*
X0415696Y0065778D01*
X0415697Y0064179D02*
X0373325Y0064179D01*
X0374288Y0062581D02*
X0415697Y0062581D01*
X0415697Y0060982D02*
X0374475Y0060982D01*
X0374025Y0059384D02*
X0415698Y0059384D01*
X0415698Y0057785D02*
X0372689Y0057785D01*
X0357427Y0092952D02*
X0355978Y0092952D01*
X0357576Y0094551D02*
X0359025Y0094551D01*
X0359175Y0096149D02*
X0360624Y0096149D01*
X0360773Y0097748D02*
X0362222Y0097748D01*
X0362372Y0099346D02*
X0363821Y0099346D01*
X0363970Y0100945D02*
X0365419Y0100945D01*
X0365569Y0102543D02*
X0366296Y0102543D01*
X0367167Y0104142D02*
X0367238Y0104142D01*
X0331299Y0123324D02*
X0329500Y0123324D01*
X0329500Y0121726D02*
X0329700Y0121726D01*
X0329500Y0124923D02*
X0332897Y0124923D01*
X0334496Y0126521D02*
X0329500Y0126521D01*
X0329500Y0128120D02*
X0336094Y0128120D01*
X0337693Y0129718D02*
X0329500Y0129718D01*
X0329500Y0131317D02*
X0339291Y0131317D01*
X0340890Y0132915D02*
X0329500Y0132915D01*
X0329500Y0134514D02*
X0342488Y0134514D01*
X0344087Y0136112D02*
X0329500Y0136112D01*
X0329500Y0137711D02*
X0344600Y0137711D01*
X0344600Y0139309D02*
X0329500Y0139309D01*
X0329500Y0140908D02*
X0333505Y0140908D01*
X0332620Y0142506D02*
X0329500Y0142506D01*
X0329500Y0144105D02*
X0332425Y0144105D01*
X0332860Y0145703D02*
X0329500Y0145703D01*
X0323100Y0145703D02*
X0322975Y0145703D01*
X0323100Y0144105D02*
X0322824Y0144105D01*
X0323100Y0142506D02*
X0321910Y0142506D01*
X0323100Y0140908D02*
X0308800Y0140908D01*
X0308464Y0142506D02*
X0315690Y0142506D01*
X0315110Y0147302D02*
X0307166Y0147302D01*
X0308384Y0148900D02*
X0316583Y0148900D01*
X0321017Y0148900D02*
X0323100Y0148900D01*
X0323100Y0147302D02*
X0322490Y0147302D01*
X0310800Y0136300D02*
X0311800Y0135300D01*
X0310800Y0136300D02*
X0111300Y0136300D01*
X0111800Y0136800D01*
X0111800Y0148800D01*
X0107549Y0150499D02*
X0098127Y0150499D01*
X0099725Y0148900D02*
X0107222Y0148900D01*
X0107465Y0147302D02*
X0101324Y0147302D01*
X0102922Y0145703D02*
X0108423Y0145703D01*
X0108600Y0144105D02*
X0104521Y0144105D01*
X0106119Y0142506D02*
X0108600Y0142506D01*
X0108600Y0140908D02*
X0107718Y0140908D01*
X0107800Y0136300D02*
X0111300Y0136300D01*
X0107800Y0136300D02*
X0060800Y0183300D01*
X0060800Y0187300D01*
X0064975Y0187265D02*
X0066310Y0187265D01*
X0066958Y0185666D02*
X0064642Y0185666D01*
X0064558Y0184068D02*
X0068128Y0184068D01*
X0066156Y0182469D02*
X0087600Y0182469D01*
X0087600Y0180870D02*
X0067755Y0180870D01*
X0069353Y0179272D02*
X0087600Y0179272D01*
X0087600Y0177673D02*
X0070952Y0177673D01*
X0072551Y0176075D02*
X0087600Y0176075D01*
X0087600Y0174476D02*
X0074149Y0174476D01*
X0075748Y0172878D02*
X0087600Y0172878D01*
X0087600Y0171279D02*
X0077346Y0171279D01*
X0078945Y0169681D02*
X0087600Y0169681D01*
X0087358Y0168082D02*
X0080543Y0168082D01*
X0082142Y0166484D02*
X0086439Y0166484D01*
X0086222Y0164885D02*
X0083740Y0164885D01*
X0085339Y0163287D02*
X0086575Y0163287D01*
X0086937Y0161688D02*
X0087687Y0161688D01*
X0088536Y0160090D02*
X0173315Y0160090D01*
X0172121Y0161688D02*
X0093913Y0161688D01*
X0095025Y0163287D02*
X0171600Y0163287D01*
X0171600Y0164885D02*
X0095378Y0164885D01*
X0095161Y0166484D02*
X0172192Y0166484D01*
X0173487Y0168082D02*
X0094242Y0168082D01*
X0090800Y0165050D02*
X0090800Y0187300D01*
X0094975Y0187265D02*
X0096625Y0187265D01*
X0096929Y0188863D02*
X0094671Y0188863D01*
X0093542Y0190462D02*
X0098057Y0190462D01*
X0096958Y0185666D02*
X0094642Y0185666D01*
X0094000Y0184068D02*
X0098128Y0184068D01*
X0094000Y0182469D02*
X0111106Y0182469D01*
X0112704Y0180870D02*
X0094000Y0180870D01*
X0094000Y0179272D02*
X0114748Y0179272D01*
X0108128Y0184068D02*
X0103472Y0184068D01*
X0104642Y0185666D02*
X0106958Y0185666D01*
X0106310Y0187265D02*
X0104975Y0187265D01*
X0104711Y0188863D02*
X0104671Y0188863D01*
X0108131Y0194494D02*
X0111151Y0191475D01*
X0111630Y0191475D01*
X0113165Y0190839D01*
X0114339Y0189665D01*
X0114975Y0188130D01*
X0114975Y0187651D01*
X0116957Y0185668D01*
X0116625Y0186470D01*
X0116625Y0188130D01*
X0117261Y0189665D01*
X0118435Y0190839D01*
X0119970Y0191475D01*
X0121630Y0191475D01*
X0123165Y0190839D01*
X0124339Y0189665D01*
X0124975Y0188130D01*
X0124975Y0186470D01*
X0124573Y0185500D01*
X0126807Y0185500D01*
X0126746Y0185621D01*
X0126533Y0186276D01*
X0126425Y0186956D01*
X0126425Y0187300D01*
X0130800Y0187300D01*
X0130800Y0187300D01*
X0130800Y0191675D01*
X0131144Y0191675D01*
X0131824Y0191567D01*
X0132479Y0191354D01*
X0133093Y0191042D01*
X0133650Y0190637D01*
X0134137Y0190150D01*
X0134542Y0189593D01*
X0134854Y0188979D01*
X0135067Y0188324D01*
X0135175Y0187644D01*
X0135175Y0187300D01*
X0130800Y0187300D01*
X0130800Y0187300D01*
X0130800Y0187300D01*
X0130800Y0191675D01*
X0130456Y0191675D01*
X0129776Y0191567D01*
X0129121Y0191354D01*
X0128507Y0191042D01*
X0127950Y0190637D01*
X0127463Y0190150D01*
X0127058Y0189593D01*
X0126746Y0188979D01*
X0126533Y0188324D01*
X0126425Y0187644D01*
X0126425Y0187300D01*
X0130800Y0187300D01*
X0135175Y0187300D01*
X0135175Y0186956D01*
X0135067Y0186276D01*
X0134854Y0185621D01*
X0134793Y0185500D01*
X0173505Y0185500D01*
X0172407Y0186598D01*
X0171600Y0188546D01*
X0171600Y0190654D01*
X0172407Y0192602D01*
X0173898Y0194093D01*
X0174866Y0194494D01*
X0108131Y0194494D01*
X0108967Y0193659D02*
X0173463Y0193659D01*
X0172182Y0192060D02*
X0110565Y0192060D01*
X0113542Y0190462D02*
X0118057Y0190462D01*
X0116929Y0188863D02*
X0114671Y0188863D01*
X0115361Y0187265D02*
X0116625Y0187265D01*
X0123542Y0190462D02*
X0127775Y0190462D01*
X0126708Y0188863D02*
X0124671Y0188863D01*
X0124975Y0187265D02*
X0126425Y0187265D01*
X0126731Y0185666D02*
X0124642Y0185666D01*
X0130800Y0188863D02*
X0130800Y0188863D01*
X0130800Y0190462D02*
X0130800Y0190462D01*
X0133825Y0190462D02*
X0171600Y0190462D01*
X0171600Y0188863D02*
X0134892Y0188863D01*
X0135175Y0187265D02*
X0172131Y0187265D01*
X0173339Y0185666D02*
X0134869Y0185666D01*
X0088057Y0190462D02*
X0083825Y0190462D01*
X0084892Y0188863D02*
X0086929Y0188863D01*
X0086625Y0187265D02*
X0085175Y0187265D01*
X0085175Y0187300D02*
X0080800Y0187300D01*
X0080800Y0187300D01*
X0080800Y0182925D01*
X0081144Y0182925D01*
X0081824Y0183033D01*
X0082479Y0183246D01*
X0083093Y0183558D01*
X0083650Y0183963D01*
X0084137Y0184450D01*
X0084542Y0185007D01*
X0084854Y0185621D01*
X0085067Y0186276D01*
X0085175Y0186956D01*
X0085175Y0187300D01*
X0084869Y0185666D02*
X0086958Y0185666D01*
X0087600Y0184068D02*
X0083754Y0184068D01*
X0080800Y0184068D02*
X0080800Y0184068D01*
X0080800Y0182925D02*
X0080800Y0187300D01*
X0080800Y0187300D01*
X0080800Y0187300D01*
X0076425Y0187300D01*
X0076425Y0186956D01*
X0076533Y0186276D01*
X0076746Y0185621D01*
X0077058Y0185007D01*
X0077463Y0184450D01*
X0077950Y0183963D01*
X0078507Y0183558D01*
X0079121Y0183246D01*
X0079776Y0183033D01*
X0080456Y0182925D01*
X0080800Y0182925D01*
X0080800Y0185666D02*
X0080800Y0185666D01*
X0080800Y0187265D02*
X0080800Y0187265D01*
X0077846Y0184068D02*
X0073472Y0184068D01*
X0074642Y0185666D02*
X0076731Y0185666D01*
X0076425Y0187265D02*
X0074975Y0187265D01*
X0074671Y0188863D02*
X0076708Y0188863D01*
X0077775Y0190462D02*
X0073542Y0190462D01*
X0070800Y0187300D02*
X0066300Y0191800D01*
X0053300Y0191800D01*
X0051550Y0190050D01*
X0049303Y0179272D02*
X0049250Y0179272D01*
X0049250Y0177673D02*
X0050901Y0177673D01*
X0052500Y0176075D02*
X0049250Y0176075D01*
X0049250Y0174476D02*
X0054098Y0174476D01*
X0055697Y0172878D02*
X0049250Y0172878D01*
X0049250Y0171279D02*
X0057295Y0171279D01*
X0058894Y0169681D02*
X0049250Y0169681D01*
X0049250Y0168082D02*
X0060492Y0168082D01*
X0062091Y0166484D02*
X0049250Y0166484D01*
X0049250Y0164885D02*
X0063689Y0164885D01*
X0065288Y0163287D02*
X0049250Y0163287D01*
X0049250Y0161688D02*
X0066886Y0161688D01*
X0068485Y0160090D02*
X0049250Y0160090D01*
X0049250Y0158491D02*
X0070083Y0158491D01*
X0071682Y0156893D02*
X0049250Y0156893D01*
X0049250Y0155294D02*
X0073280Y0155294D01*
X0074879Y0153696D02*
X0049250Y0153696D01*
X0049250Y0152097D02*
X0076477Y0152097D01*
X0078076Y0150499D02*
X0049250Y0150499D01*
X0049250Y0148900D02*
X0079674Y0148900D01*
X0081273Y0147302D02*
X0049250Y0147302D01*
X0049250Y0145703D02*
X0082871Y0145703D01*
X0084470Y0144105D02*
X0049250Y0144105D01*
X0049250Y0142506D02*
X0086068Y0142506D01*
X0087667Y0140908D02*
X0049250Y0140908D01*
X0049250Y0139309D02*
X0089265Y0139309D01*
X0090864Y0137711D02*
X0049250Y0137711D01*
X0049250Y0136112D02*
X0092462Y0136112D01*
X0094061Y0134514D02*
X0049250Y0134514D01*
X0049250Y0132915D02*
X0095659Y0132915D01*
X0097258Y0131317D02*
X0049250Y0131317D01*
X0049250Y0129718D02*
X0098856Y0129718D01*
X0101116Y0128120D02*
X0049250Y0128120D01*
X0096528Y0152097D02*
X0108623Y0152097D01*
X0091733Y0156893D02*
X0179482Y0156893D01*
X0177883Y0158491D02*
X0090134Y0158491D01*
X0107265Y0099346D02*
X0111764Y0099346D01*
X0110557Y0097748D02*
X0108419Y0097748D01*
X0137178Y0092952D02*
X0141568Y0092952D01*
X0140476Y0094551D02*
X0138270Y0094551D01*
X0138548Y0096149D02*
X0140199Y0096149D01*
X0140557Y0097748D02*
X0138189Y0097748D01*
X0165300Y0078800D02*
X0177300Y0078800D01*
X0226930Y0063990D02*
X0226699Y0063129D01*
X0226583Y0062246D01*
X0226583Y0061984D01*
X0233198Y0061984D01*
X0233198Y0068600D01*
X0232937Y0068600D01*
X0232053Y0068484D01*
X0231192Y0068253D01*
X0230369Y0067912D01*
X0229597Y0067466D01*
X0228890Y0066923D01*
X0228259Y0066293D01*
X0227717Y0065586D01*
X0227271Y0064814D01*
X0226930Y0063990D01*
X0227008Y0064179D02*
X0062376Y0064179D01*
X0062817Y0062581D02*
X0226627Y0062581D01*
X0226632Y0060982D02*
X0062817Y0060982D01*
X0062360Y0059384D02*
X0227023Y0059384D01*
X0227892Y0057785D02*
X0061536Y0057785D01*
X0059912Y0056187D02*
X0229528Y0056187D01*
X0233198Y0056187D02*
X0233567Y0056187D01*
X0233567Y0057785D02*
X0233198Y0057785D01*
X0233198Y0059384D02*
X0233567Y0059384D01*
X0233567Y0060982D02*
X0233198Y0060982D01*
X0233198Y0062581D02*
X0233567Y0062581D01*
X0233567Y0064179D02*
X0233198Y0064179D01*
X0233198Y0065778D02*
X0233567Y0065778D01*
X0233567Y0067376D02*
X0233198Y0067376D01*
X0229479Y0067376D02*
X0059975Y0067376D01*
X0061573Y0065778D02*
X0227864Y0065778D01*
X0237286Y0067376D02*
X0241360Y0067376D01*
X0238902Y0065778D02*
X0244797Y0065778D01*
X0241315Y0064179D02*
X0239757Y0064179D01*
X0240139Y0062581D02*
X0240167Y0062581D01*
X0240016Y0059384D02*
X0239742Y0059384D01*
X0238873Y0057785D02*
X0240951Y0057785D01*
X0237237Y0056187D02*
X0253013Y0056187D01*
X0252722Y0057785D02*
X0247649Y0057785D01*
X0248584Y0059384D02*
X0251191Y0059384D01*
X0249592Y0060982D02*
X0248800Y0060982D01*
X0255446Y0064179D02*
X0259395Y0064179D01*
X0257797Y0065778D02*
X0253848Y0065778D01*
X0252249Y0067376D02*
X0256198Y0067376D01*
X0254600Y0068975D02*
X0250651Y0068975D01*
X0249052Y0070573D02*
X0253001Y0070573D01*
X0251403Y0072172D02*
X0248603Y0072172D01*
X0247694Y0073770D02*
X0249804Y0073770D01*
X0244300Y0070800D02*
X0257300Y0057800D01*
X0261878Y0057785D02*
X0265789Y0057785D01*
X0264191Y0059384D02*
X0261599Y0059384D01*
X0262592Y0060982D02*
X0260592Y0060982D01*
X0260994Y0062581D02*
X0257045Y0062581D01*
X0261587Y0056187D02*
X0267388Y0056187D01*
X0268986Y0054588D02*
X0260562Y0054588D01*
X0254038Y0054588D02*
X0246876Y0054588D01*
X0248264Y0052990D02*
X0270723Y0052990D01*
X0315000Y0132915D02*
X0315281Y0132915D01*
X0336800Y0163800D02*
X0347800Y0152800D01*
X0332957Y0162168D02*
X0331613Y0163513D01*
X0330437Y0164000D01*
X0322780Y0164000D01*
X0322975Y0164470D01*
X0322975Y0166130D01*
X0322339Y0167665D01*
X0321165Y0168839D01*
X0319630Y0169475D01*
X0317970Y0169475D01*
X0316435Y0168839D01*
X0315261Y0167665D01*
X0314625Y0166130D01*
X0314625Y0164470D01*
X0314820Y0164000D01*
X0307464Y0164000D01*
X0306849Y0164615D01*
X0305195Y0165300D01*
X0303405Y0165300D01*
X0301751Y0164615D01*
X0301136Y0164000D01*
X0298500Y0164000D01*
X0298500Y0189596D01*
X0298839Y0189935D01*
X0299475Y0191470D01*
X0299475Y0193130D01*
X0298910Y0194494D01*
X0301690Y0194494D01*
X0301125Y0193130D01*
X0301125Y0191470D01*
X0301761Y0189935D01*
X0302935Y0188761D01*
X0304470Y0188125D01*
X0306130Y0188125D01*
X0307417Y0188658D01*
X0332625Y0163449D01*
X0332625Y0162970D01*
X0332957Y0162168D01*
X0332625Y0163287D02*
X0331839Y0163287D01*
X0331189Y0164885D02*
X0322975Y0164885D01*
X0322828Y0166484D02*
X0329591Y0166484D01*
X0327992Y0168082D02*
X0321922Y0168082D01*
X0326394Y0169681D02*
X0308878Y0169681D01*
X0308884Y0169699D02*
X0309000Y0170430D01*
X0309000Y0170650D01*
X0304450Y0170650D01*
X0304450Y0170950D01*
X0309000Y0170950D01*
X0309000Y0171170D01*
X0308884Y0171901D01*
X0308656Y0172604D01*
X0308320Y0173263D01*
X0307885Y0173862D01*
X0307362Y0174385D01*
X0306763Y0174820D01*
X0306104Y0175156D01*
X0305401Y0175384D01*
X0304670Y0175500D01*
X0304450Y0175500D01*
X0304450Y0170950D01*
X0304150Y0170950D01*
X0304150Y0175500D01*
X0303930Y0175500D01*
X0303199Y0175384D01*
X0302496Y0175156D01*
X0301837Y0174820D01*
X0301238Y0174385D01*
X0300715Y0173862D01*
X0300280Y0173263D01*
X0299944Y0172604D01*
X0299716Y0171901D01*
X0299600Y0171170D01*
X0299600Y0170950D01*
X0304150Y0170950D01*
X0304150Y0170650D01*
X0304450Y0170650D01*
X0304450Y0166100D01*
X0304670Y0166100D01*
X0305401Y0166216D01*
X0306104Y0166444D01*
X0306763Y0166780D01*
X0307362Y0167215D01*
X0307885Y0167738D01*
X0308320Y0168337D01*
X0308656Y0168996D01*
X0308884Y0169699D01*
X0308983Y0171279D02*
X0324795Y0171279D01*
X0323197Y0172878D02*
X0308516Y0172878D01*
X0307236Y0174476D02*
X0321598Y0174476D01*
X0320000Y0176075D02*
X0298500Y0176075D01*
X0298500Y0177673D02*
X0301063Y0177673D01*
X0300485Y0178251D02*
X0301751Y0176985D01*
X0303405Y0176300D01*
X0305195Y0176300D01*
X0306849Y0176985D01*
X0308115Y0178251D01*
X0308800Y0179905D01*
X0308800Y0181695D01*
X0308115Y0183349D01*
X0306849Y0184615D01*
X0305195Y0185300D01*
X0303405Y0185300D01*
X0301751Y0184615D01*
X0300485Y0183349D01*
X0299800Y0181695D01*
X0299800Y0179905D01*
X0300485Y0178251D01*
X0300062Y0179272D02*
X0298500Y0179272D01*
X0298500Y0180870D02*
X0299800Y0180870D01*
X0300121Y0182469D02*
X0298500Y0182469D01*
X0298500Y0184068D02*
X0301204Y0184068D01*
X0298500Y0185666D02*
X0310408Y0185666D01*
X0308810Y0187265D02*
X0298500Y0187265D01*
X0298500Y0188863D02*
X0302833Y0188863D01*
X0301543Y0190462D02*
X0299057Y0190462D01*
X0299475Y0192060D02*
X0301125Y0192060D01*
X0301344Y0193659D02*
X0299256Y0193659D01*
X0305300Y0192300D02*
X0308300Y0192300D01*
X0336800Y0163800D01*
X0326300Y0160800D02*
X0304300Y0160800D01*
X0295800Y0160800D01*
X0298500Y0164885D02*
X0302404Y0164885D01*
X0303199Y0166216D02*
X0302496Y0166444D01*
X0301837Y0166780D01*
X0301238Y0167215D01*
X0300715Y0167738D01*
X0300280Y0168337D01*
X0299944Y0168996D01*
X0299716Y0169699D01*
X0299600Y0170430D01*
X0299600Y0170650D01*
X0304150Y0170650D01*
X0304150Y0166100D01*
X0303930Y0166100D01*
X0303199Y0166216D01*
X0302418Y0166484D02*
X0298500Y0166484D01*
X0298500Y0168082D02*
X0300465Y0168082D01*
X0299722Y0169681D02*
X0298500Y0169681D01*
X0298500Y0171279D02*
X0299617Y0171279D01*
X0300084Y0172878D02*
X0298500Y0172878D01*
X0298500Y0174476D02*
X0301364Y0174476D01*
X0304150Y0174476D02*
X0304450Y0174476D01*
X0304450Y0172878D02*
X0304150Y0172878D01*
X0304150Y0171279D02*
X0304450Y0171279D01*
X0304450Y0169681D02*
X0304150Y0169681D01*
X0304150Y0168082D02*
X0304450Y0168082D01*
X0304450Y0166484D02*
X0304150Y0166484D01*
X0306182Y0166484D02*
X0314772Y0166484D01*
X0314625Y0164885D02*
X0306196Y0164885D01*
X0308135Y0168082D02*
X0315678Y0168082D01*
X0318401Y0177673D02*
X0307537Y0177673D01*
X0308538Y0179272D02*
X0316803Y0179272D01*
X0315204Y0180870D02*
X0308800Y0180870D01*
X0308479Y0182469D02*
X0313606Y0182469D01*
X0312007Y0184068D02*
X0307396Y0184068D01*
X0285300Y0187925D02*
X0285300Y0192300D01*
X0285300Y0192300D01*
X0285300Y0192300D01*
X0280925Y0192300D01*
X0280925Y0191956D01*
X0281033Y0191276D01*
X0281246Y0190621D01*
X0281558Y0190007D01*
X0281963Y0189450D01*
X0282450Y0188963D01*
X0283007Y0188558D01*
X0283621Y0188246D01*
X0284276Y0188033D01*
X0284956Y0187925D01*
X0285300Y0187925D01*
X0285300Y0188863D02*
X0285300Y0188863D01*
X0285300Y0190462D02*
X0285300Y0190462D01*
X0285300Y0192060D02*
X0285300Y0192060D01*
X0282588Y0188863D02*
X0237931Y0188863D01*
X0237975Y0190462D02*
X0281327Y0190462D01*
X0280925Y0192060D02*
X0237383Y0192060D01*
X0235394Y0193659D02*
X0281141Y0193659D01*
X0244300Y0170800D02*
X0233800Y0181300D01*
X0233800Y0189800D01*
X0230431Y0187265D02*
X0227169Y0187265D01*
X0227000Y0185666D02*
X0230600Y0185666D01*
X0230600Y0184068D02*
X0227000Y0184068D01*
X0227156Y0182469D02*
X0230600Y0182469D01*
X0230600Y0180870D02*
X0228755Y0180870D01*
X0230353Y0179272D02*
X0231303Y0179272D01*
X0231952Y0177673D02*
X0232901Y0177673D01*
X0233551Y0176075D02*
X0234500Y0176075D01*
X0235149Y0174476D02*
X0236098Y0174476D01*
X0236748Y0172878D02*
X0237697Y0172878D01*
X0238346Y0171279D02*
X0239295Y0171279D01*
X0223800Y0181300D02*
X0223800Y0189800D01*
X0227975Y0190462D02*
X0229625Y0190462D01*
X0229669Y0188863D02*
X0227931Y0188863D01*
X0227383Y0192060D02*
X0230217Y0192060D01*
X0232206Y0193659D02*
X0225394Y0193659D01*
X0222206Y0193659D02*
X0215394Y0193659D01*
X0217383Y0192060D02*
X0220217Y0192060D01*
X0219625Y0190462D02*
X0217975Y0190462D01*
X0217931Y0188863D02*
X0219669Y0188863D01*
X0411513Y0158491D02*
X0415679Y0158491D01*
X0415680Y0156893D02*
X0412659Y0156893D01*
X0412975Y0155294D02*
X0415680Y0155294D01*
X0415680Y0153696D02*
X0412654Y0153696D01*
X0412975Y0136112D02*
X0415684Y0136112D01*
X0415684Y0134514D02*
X0414112Y0134514D01*
X0072607Y0076967D02*
X0047397Y0076967D01*
X0048995Y0078566D02*
X0071009Y0078566D01*
X0069410Y0080164D02*
X0050594Y0080164D01*
X0052192Y0081763D02*
X0056226Y0081763D01*
X0054878Y0083361D02*
X0053301Y0083361D01*
X0053700Y0084960D02*
X0054425Y0084960D01*
X0054609Y0086558D02*
X0053583Y0086558D01*
X0052873Y0088157D02*
X0055470Y0088157D01*
D17*
X0124300Y0111800D03*
X0111800Y0148800D03*
X0090800Y0165050D03*
X0272300Y0073300D03*
X0257300Y0057800D03*
X0360050Y0059550D03*
D18*
X0056217Y0061800D02*
X0047800Y0053383D01*
X0047800Y0049300D01*
X0037800Y0049300D02*
X0037800Y0074300D01*
X0048800Y0085300D01*
M02*
