G75*
%MOIN*%
%OFA0B0*%
%FSLAX25Y25*%
%IPPOS*%
%LPD*%
%AMOC8*
5,1,8,0,0,1.08239X$1,22.5*
%
%ADD10C,0.00800*%
%ADD11C,0.00500*%
%ADD12C,0.00400*%
%ADD13C,0.00600*%
%ADD14R,0.02400X0.03400*%
D10*
X0173800Y0090800D02*
X0173800Y0107800D01*
X0181871Y0111300D02*
X0189800Y0111300D01*
X0197800Y0107800D02*
X0197800Y0090800D01*
X0189800Y0087300D02*
X0181753Y0087300D01*
X0178800Y0099300D02*
X0178802Y0099472D01*
X0178808Y0099643D01*
X0178819Y0099815D01*
X0178834Y0099986D01*
X0178853Y0100157D01*
X0178876Y0100327D01*
X0178903Y0100497D01*
X0178935Y0100666D01*
X0178970Y0100834D01*
X0179010Y0101001D01*
X0179054Y0101167D01*
X0179101Y0101332D01*
X0179153Y0101496D01*
X0179209Y0101658D01*
X0179269Y0101819D01*
X0179333Y0101979D01*
X0179401Y0102137D01*
X0179472Y0102293D01*
X0179547Y0102447D01*
X0179627Y0102600D01*
X0179709Y0102750D01*
X0179796Y0102899D01*
X0179886Y0103045D01*
X0179980Y0103189D01*
X0180077Y0103331D01*
X0180178Y0103470D01*
X0180282Y0103607D01*
X0180389Y0103741D01*
X0180500Y0103872D01*
X0180613Y0104001D01*
X0180730Y0104127D01*
X0180850Y0104250D01*
X0180973Y0104370D01*
X0181099Y0104487D01*
X0181228Y0104600D01*
X0181359Y0104711D01*
X0181493Y0104818D01*
X0181630Y0104922D01*
X0181769Y0105023D01*
X0181911Y0105120D01*
X0182055Y0105214D01*
X0182201Y0105304D01*
X0182350Y0105391D01*
X0182500Y0105473D01*
X0182653Y0105553D01*
X0182807Y0105628D01*
X0182963Y0105699D01*
X0183121Y0105767D01*
X0183281Y0105831D01*
X0183442Y0105891D01*
X0183604Y0105947D01*
X0183768Y0105999D01*
X0183933Y0106046D01*
X0184099Y0106090D01*
X0184266Y0106130D01*
X0184434Y0106165D01*
X0184603Y0106197D01*
X0184773Y0106224D01*
X0184943Y0106247D01*
X0185114Y0106266D01*
X0185285Y0106281D01*
X0185457Y0106292D01*
X0185628Y0106298D01*
X0185800Y0106300D01*
X0185972Y0106298D01*
X0186143Y0106292D01*
X0186315Y0106281D01*
X0186486Y0106266D01*
X0186657Y0106247D01*
X0186827Y0106224D01*
X0186997Y0106197D01*
X0187166Y0106165D01*
X0187334Y0106130D01*
X0187501Y0106090D01*
X0187667Y0106046D01*
X0187832Y0105999D01*
X0187996Y0105947D01*
X0188158Y0105891D01*
X0188319Y0105831D01*
X0188479Y0105767D01*
X0188637Y0105699D01*
X0188793Y0105628D01*
X0188947Y0105553D01*
X0189100Y0105473D01*
X0189250Y0105391D01*
X0189399Y0105304D01*
X0189545Y0105214D01*
X0189689Y0105120D01*
X0189831Y0105023D01*
X0189970Y0104922D01*
X0190107Y0104818D01*
X0190241Y0104711D01*
X0190372Y0104600D01*
X0190501Y0104487D01*
X0190627Y0104370D01*
X0190750Y0104250D01*
X0190870Y0104127D01*
X0190987Y0104001D01*
X0191100Y0103872D01*
X0191211Y0103741D01*
X0191318Y0103607D01*
X0191422Y0103470D01*
X0191523Y0103331D01*
X0191620Y0103189D01*
X0191714Y0103045D01*
X0191804Y0102899D01*
X0191891Y0102750D01*
X0191973Y0102600D01*
X0192053Y0102447D01*
X0192128Y0102293D01*
X0192199Y0102137D01*
X0192267Y0101979D01*
X0192331Y0101819D01*
X0192391Y0101658D01*
X0192447Y0101496D01*
X0192499Y0101332D01*
X0192546Y0101167D01*
X0192590Y0101001D01*
X0192630Y0100834D01*
X0192665Y0100666D01*
X0192697Y0100497D01*
X0192724Y0100327D01*
X0192747Y0100157D01*
X0192766Y0099986D01*
X0192781Y0099815D01*
X0192792Y0099643D01*
X0192798Y0099472D01*
X0192800Y0099300D01*
X0192798Y0099128D01*
X0192792Y0098957D01*
X0192781Y0098785D01*
X0192766Y0098614D01*
X0192747Y0098443D01*
X0192724Y0098273D01*
X0192697Y0098103D01*
X0192665Y0097934D01*
X0192630Y0097766D01*
X0192590Y0097599D01*
X0192546Y0097433D01*
X0192499Y0097268D01*
X0192447Y0097104D01*
X0192391Y0096942D01*
X0192331Y0096781D01*
X0192267Y0096621D01*
X0192199Y0096463D01*
X0192128Y0096307D01*
X0192053Y0096153D01*
X0191973Y0096000D01*
X0191891Y0095850D01*
X0191804Y0095701D01*
X0191714Y0095555D01*
X0191620Y0095411D01*
X0191523Y0095269D01*
X0191422Y0095130D01*
X0191318Y0094993D01*
X0191211Y0094859D01*
X0191100Y0094728D01*
X0190987Y0094599D01*
X0190870Y0094473D01*
X0190750Y0094350D01*
X0190627Y0094230D01*
X0190501Y0094113D01*
X0190372Y0094000D01*
X0190241Y0093889D01*
X0190107Y0093782D01*
X0189970Y0093678D01*
X0189831Y0093577D01*
X0189689Y0093480D01*
X0189545Y0093386D01*
X0189399Y0093296D01*
X0189250Y0093209D01*
X0189100Y0093127D01*
X0188947Y0093047D01*
X0188793Y0092972D01*
X0188637Y0092901D01*
X0188479Y0092833D01*
X0188319Y0092769D01*
X0188158Y0092709D01*
X0187996Y0092653D01*
X0187832Y0092601D01*
X0187667Y0092554D01*
X0187501Y0092510D01*
X0187334Y0092470D01*
X0187166Y0092435D01*
X0186997Y0092403D01*
X0186827Y0092376D01*
X0186657Y0092353D01*
X0186486Y0092334D01*
X0186315Y0092319D01*
X0186143Y0092308D01*
X0185972Y0092302D01*
X0185800Y0092300D01*
X0185628Y0092302D01*
X0185457Y0092308D01*
X0185285Y0092319D01*
X0185114Y0092334D01*
X0184943Y0092353D01*
X0184773Y0092376D01*
X0184603Y0092403D01*
X0184434Y0092435D01*
X0184266Y0092470D01*
X0184099Y0092510D01*
X0183933Y0092554D01*
X0183768Y0092601D01*
X0183604Y0092653D01*
X0183442Y0092709D01*
X0183281Y0092769D01*
X0183121Y0092833D01*
X0182963Y0092901D01*
X0182807Y0092972D01*
X0182653Y0093047D01*
X0182500Y0093127D01*
X0182350Y0093209D01*
X0182201Y0093296D01*
X0182055Y0093386D01*
X0181911Y0093480D01*
X0181769Y0093577D01*
X0181630Y0093678D01*
X0181493Y0093782D01*
X0181359Y0093889D01*
X0181228Y0094000D01*
X0181099Y0094113D01*
X0180973Y0094230D01*
X0180850Y0094350D01*
X0180730Y0094473D01*
X0180613Y0094599D01*
X0180500Y0094728D01*
X0180389Y0094859D01*
X0180282Y0094993D01*
X0180178Y0095130D01*
X0180077Y0095269D01*
X0179980Y0095411D01*
X0179886Y0095555D01*
X0179796Y0095701D01*
X0179709Y0095850D01*
X0179627Y0096000D01*
X0179547Y0096153D01*
X0179472Y0096307D01*
X0179401Y0096463D01*
X0179333Y0096621D01*
X0179269Y0096781D01*
X0179209Y0096942D01*
X0179153Y0097104D01*
X0179101Y0097268D01*
X0179054Y0097433D01*
X0179010Y0097599D01*
X0178970Y0097766D01*
X0178935Y0097934D01*
X0178903Y0098103D01*
X0178876Y0098273D01*
X0178853Y0098443D01*
X0178834Y0098614D01*
X0178819Y0098785D01*
X0178808Y0098957D01*
X0178802Y0099128D01*
X0178800Y0099300D01*
X0181753Y0124300D02*
X0189800Y0124300D01*
X0197800Y0127800D02*
X0197800Y0144800D01*
X0189800Y0148300D02*
X0181871Y0148300D01*
X0173800Y0144800D02*
X0173800Y0127800D01*
X0178800Y0136300D02*
X0178802Y0136472D01*
X0178808Y0136643D01*
X0178819Y0136815D01*
X0178834Y0136986D01*
X0178853Y0137157D01*
X0178876Y0137327D01*
X0178903Y0137497D01*
X0178935Y0137666D01*
X0178970Y0137834D01*
X0179010Y0138001D01*
X0179054Y0138167D01*
X0179101Y0138332D01*
X0179153Y0138496D01*
X0179209Y0138658D01*
X0179269Y0138819D01*
X0179333Y0138979D01*
X0179401Y0139137D01*
X0179472Y0139293D01*
X0179547Y0139447D01*
X0179627Y0139600D01*
X0179709Y0139750D01*
X0179796Y0139899D01*
X0179886Y0140045D01*
X0179980Y0140189D01*
X0180077Y0140331D01*
X0180178Y0140470D01*
X0180282Y0140607D01*
X0180389Y0140741D01*
X0180500Y0140872D01*
X0180613Y0141001D01*
X0180730Y0141127D01*
X0180850Y0141250D01*
X0180973Y0141370D01*
X0181099Y0141487D01*
X0181228Y0141600D01*
X0181359Y0141711D01*
X0181493Y0141818D01*
X0181630Y0141922D01*
X0181769Y0142023D01*
X0181911Y0142120D01*
X0182055Y0142214D01*
X0182201Y0142304D01*
X0182350Y0142391D01*
X0182500Y0142473D01*
X0182653Y0142553D01*
X0182807Y0142628D01*
X0182963Y0142699D01*
X0183121Y0142767D01*
X0183281Y0142831D01*
X0183442Y0142891D01*
X0183604Y0142947D01*
X0183768Y0142999D01*
X0183933Y0143046D01*
X0184099Y0143090D01*
X0184266Y0143130D01*
X0184434Y0143165D01*
X0184603Y0143197D01*
X0184773Y0143224D01*
X0184943Y0143247D01*
X0185114Y0143266D01*
X0185285Y0143281D01*
X0185457Y0143292D01*
X0185628Y0143298D01*
X0185800Y0143300D01*
X0185972Y0143298D01*
X0186143Y0143292D01*
X0186315Y0143281D01*
X0186486Y0143266D01*
X0186657Y0143247D01*
X0186827Y0143224D01*
X0186997Y0143197D01*
X0187166Y0143165D01*
X0187334Y0143130D01*
X0187501Y0143090D01*
X0187667Y0143046D01*
X0187832Y0142999D01*
X0187996Y0142947D01*
X0188158Y0142891D01*
X0188319Y0142831D01*
X0188479Y0142767D01*
X0188637Y0142699D01*
X0188793Y0142628D01*
X0188947Y0142553D01*
X0189100Y0142473D01*
X0189250Y0142391D01*
X0189399Y0142304D01*
X0189545Y0142214D01*
X0189689Y0142120D01*
X0189831Y0142023D01*
X0189970Y0141922D01*
X0190107Y0141818D01*
X0190241Y0141711D01*
X0190372Y0141600D01*
X0190501Y0141487D01*
X0190627Y0141370D01*
X0190750Y0141250D01*
X0190870Y0141127D01*
X0190987Y0141001D01*
X0191100Y0140872D01*
X0191211Y0140741D01*
X0191318Y0140607D01*
X0191422Y0140470D01*
X0191523Y0140331D01*
X0191620Y0140189D01*
X0191714Y0140045D01*
X0191804Y0139899D01*
X0191891Y0139750D01*
X0191973Y0139600D01*
X0192053Y0139447D01*
X0192128Y0139293D01*
X0192199Y0139137D01*
X0192267Y0138979D01*
X0192331Y0138819D01*
X0192391Y0138658D01*
X0192447Y0138496D01*
X0192499Y0138332D01*
X0192546Y0138167D01*
X0192590Y0138001D01*
X0192630Y0137834D01*
X0192665Y0137666D01*
X0192697Y0137497D01*
X0192724Y0137327D01*
X0192747Y0137157D01*
X0192766Y0136986D01*
X0192781Y0136815D01*
X0192792Y0136643D01*
X0192798Y0136472D01*
X0192800Y0136300D01*
X0192798Y0136128D01*
X0192792Y0135957D01*
X0192781Y0135785D01*
X0192766Y0135614D01*
X0192747Y0135443D01*
X0192724Y0135273D01*
X0192697Y0135103D01*
X0192665Y0134934D01*
X0192630Y0134766D01*
X0192590Y0134599D01*
X0192546Y0134433D01*
X0192499Y0134268D01*
X0192447Y0134104D01*
X0192391Y0133942D01*
X0192331Y0133781D01*
X0192267Y0133621D01*
X0192199Y0133463D01*
X0192128Y0133307D01*
X0192053Y0133153D01*
X0191973Y0133000D01*
X0191891Y0132850D01*
X0191804Y0132701D01*
X0191714Y0132555D01*
X0191620Y0132411D01*
X0191523Y0132269D01*
X0191422Y0132130D01*
X0191318Y0131993D01*
X0191211Y0131859D01*
X0191100Y0131728D01*
X0190987Y0131599D01*
X0190870Y0131473D01*
X0190750Y0131350D01*
X0190627Y0131230D01*
X0190501Y0131113D01*
X0190372Y0131000D01*
X0190241Y0130889D01*
X0190107Y0130782D01*
X0189970Y0130678D01*
X0189831Y0130577D01*
X0189689Y0130480D01*
X0189545Y0130386D01*
X0189399Y0130296D01*
X0189250Y0130209D01*
X0189100Y0130127D01*
X0188947Y0130047D01*
X0188793Y0129972D01*
X0188637Y0129901D01*
X0188479Y0129833D01*
X0188319Y0129769D01*
X0188158Y0129709D01*
X0187996Y0129653D01*
X0187832Y0129601D01*
X0187667Y0129554D01*
X0187501Y0129510D01*
X0187334Y0129470D01*
X0187166Y0129435D01*
X0186997Y0129403D01*
X0186827Y0129376D01*
X0186657Y0129353D01*
X0186486Y0129334D01*
X0186315Y0129319D01*
X0186143Y0129308D01*
X0185972Y0129302D01*
X0185800Y0129300D01*
X0185628Y0129302D01*
X0185457Y0129308D01*
X0185285Y0129319D01*
X0185114Y0129334D01*
X0184943Y0129353D01*
X0184773Y0129376D01*
X0184603Y0129403D01*
X0184434Y0129435D01*
X0184266Y0129470D01*
X0184099Y0129510D01*
X0183933Y0129554D01*
X0183768Y0129601D01*
X0183604Y0129653D01*
X0183442Y0129709D01*
X0183281Y0129769D01*
X0183121Y0129833D01*
X0182963Y0129901D01*
X0182807Y0129972D01*
X0182653Y0130047D01*
X0182500Y0130127D01*
X0182350Y0130209D01*
X0182201Y0130296D01*
X0182055Y0130386D01*
X0181911Y0130480D01*
X0181769Y0130577D01*
X0181630Y0130678D01*
X0181493Y0130782D01*
X0181359Y0130889D01*
X0181228Y0131000D01*
X0181099Y0131113D01*
X0180973Y0131230D01*
X0180850Y0131350D01*
X0180730Y0131473D01*
X0180613Y0131599D01*
X0180500Y0131728D01*
X0180389Y0131859D01*
X0180282Y0131993D01*
X0180178Y0132130D01*
X0180077Y0132269D01*
X0179980Y0132411D01*
X0179886Y0132555D01*
X0179796Y0132701D01*
X0179709Y0132850D01*
X0179627Y0133000D01*
X0179547Y0133153D01*
X0179472Y0133307D01*
X0179401Y0133463D01*
X0179333Y0133621D01*
X0179269Y0133781D01*
X0179209Y0133942D01*
X0179153Y0134104D01*
X0179101Y0134268D01*
X0179054Y0134433D01*
X0179010Y0134599D01*
X0178970Y0134766D01*
X0178935Y0134934D01*
X0178903Y0135103D01*
X0178876Y0135273D01*
X0178853Y0135443D01*
X0178834Y0135614D01*
X0178819Y0135785D01*
X0178808Y0135957D01*
X0178802Y0136128D01*
X0178800Y0136300D01*
X0181800Y0164800D02*
X0189729Y0164800D01*
X0197800Y0168300D02*
X0197800Y0185300D01*
X0189847Y0188800D02*
X0181800Y0188800D01*
X0173800Y0185300D02*
X0173800Y0168300D01*
X0178800Y0176800D02*
X0178802Y0176972D01*
X0178808Y0177143D01*
X0178819Y0177315D01*
X0178834Y0177486D01*
X0178853Y0177657D01*
X0178876Y0177827D01*
X0178903Y0177997D01*
X0178935Y0178166D01*
X0178970Y0178334D01*
X0179010Y0178501D01*
X0179054Y0178667D01*
X0179101Y0178832D01*
X0179153Y0178996D01*
X0179209Y0179158D01*
X0179269Y0179319D01*
X0179333Y0179479D01*
X0179401Y0179637D01*
X0179472Y0179793D01*
X0179547Y0179947D01*
X0179627Y0180100D01*
X0179709Y0180250D01*
X0179796Y0180399D01*
X0179886Y0180545D01*
X0179980Y0180689D01*
X0180077Y0180831D01*
X0180178Y0180970D01*
X0180282Y0181107D01*
X0180389Y0181241D01*
X0180500Y0181372D01*
X0180613Y0181501D01*
X0180730Y0181627D01*
X0180850Y0181750D01*
X0180973Y0181870D01*
X0181099Y0181987D01*
X0181228Y0182100D01*
X0181359Y0182211D01*
X0181493Y0182318D01*
X0181630Y0182422D01*
X0181769Y0182523D01*
X0181911Y0182620D01*
X0182055Y0182714D01*
X0182201Y0182804D01*
X0182350Y0182891D01*
X0182500Y0182973D01*
X0182653Y0183053D01*
X0182807Y0183128D01*
X0182963Y0183199D01*
X0183121Y0183267D01*
X0183281Y0183331D01*
X0183442Y0183391D01*
X0183604Y0183447D01*
X0183768Y0183499D01*
X0183933Y0183546D01*
X0184099Y0183590D01*
X0184266Y0183630D01*
X0184434Y0183665D01*
X0184603Y0183697D01*
X0184773Y0183724D01*
X0184943Y0183747D01*
X0185114Y0183766D01*
X0185285Y0183781D01*
X0185457Y0183792D01*
X0185628Y0183798D01*
X0185800Y0183800D01*
X0185972Y0183798D01*
X0186143Y0183792D01*
X0186315Y0183781D01*
X0186486Y0183766D01*
X0186657Y0183747D01*
X0186827Y0183724D01*
X0186997Y0183697D01*
X0187166Y0183665D01*
X0187334Y0183630D01*
X0187501Y0183590D01*
X0187667Y0183546D01*
X0187832Y0183499D01*
X0187996Y0183447D01*
X0188158Y0183391D01*
X0188319Y0183331D01*
X0188479Y0183267D01*
X0188637Y0183199D01*
X0188793Y0183128D01*
X0188947Y0183053D01*
X0189100Y0182973D01*
X0189250Y0182891D01*
X0189399Y0182804D01*
X0189545Y0182714D01*
X0189689Y0182620D01*
X0189831Y0182523D01*
X0189970Y0182422D01*
X0190107Y0182318D01*
X0190241Y0182211D01*
X0190372Y0182100D01*
X0190501Y0181987D01*
X0190627Y0181870D01*
X0190750Y0181750D01*
X0190870Y0181627D01*
X0190987Y0181501D01*
X0191100Y0181372D01*
X0191211Y0181241D01*
X0191318Y0181107D01*
X0191422Y0180970D01*
X0191523Y0180831D01*
X0191620Y0180689D01*
X0191714Y0180545D01*
X0191804Y0180399D01*
X0191891Y0180250D01*
X0191973Y0180100D01*
X0192053Y0179947D01*
X0192128Y0179793D01*
X0192199Y0179637D01*
X0192267Y0179479D01*
X0192331Y0179319D01*
X0192391Y0179158D01*
X0192447Y0178996D01*
X0192499Y0178832D01*
X0192546Y0178667D01*
X0192590Y0178501D01*
X0192630Y0178334D01*
X0192665Y0178166D01*
X0192697Y0177997D01*
X0192724Y0177827D01*
X0192747Y0177657D01*
X0192766Y0177486D01*
X0192781Y0177315D01*
X0192792Y0177143D01*
X0192798Y0176972D01*
X0192800Y0176800D01*
X0192798Y0176628D01*
X0192792Y0176457D01*
X0192781Y0176285D01*
X0192766Y0176114D01*
X0192747Y0175943D01*
X0192724Y0175773D01*
X0192697Y0175603D01*
X0192665Y0175434D01*
X0192630Y0175266D01*
X0192590Y0175099D01*
X0192546Y0174933D01*
X0192499Y0174768D01*
X0192447Y0174604D01*
X0192391Y0174442D01*
X0192331Y0174281D01*
X0192267Y0174121D01*
X0192199Y0173963D01*
X0192128Y0173807D01*
X0192053Y0173653D01*
X0191973Y0173500D01*
X0191891Y0173350D01*
X0191804Y0173201D01*
X0191714Y0173055D01*
X0191620Y0172911D01*
X0191523Y0172769D01*
X0191422Y0172630D01*
X0191318Y0172493D01*
X0191211Y0172359D01*
X0191100Y0172228D01*
X0190987Y0172099D01*
X0190870Y0171973D01*
X0190750Y0171850D01*
X0190627Y0171730D01*
X0190501Y0171613D01*
X0190372Y0171500D01*
X0190241Y0171389D01*
X0190107Y0171282D01*
X0189970Y0171178D01*
X0189831Y0171077D01*
X0189689Y0170980D01*
X0189545Y0170886D01*
X0189399Y0170796D01*
X0189250Y0170709D01*
X0189100Y0170627D01*
X0188947Y0170547D01*
X0188793Y0170472D01*
X0188637Y0170401D01*
X0188479Y0170333D01*
X0188319Y0170269D01*
X0188158Y0170209D01*
X0187996Y0170153D01*
X0187832Y0170101D01*
X0187667Y0170054D01*
X0187501Y0170010D01*
X0187334Y0169970D01*
X0187166Y0169935D01*
X0186997Y0169903D01*
X0186827Y0169876D01*
X0186657Y0169853D01*
X0186486Y0169834D01*
X0186315Y0169819D01*
X0186143Y0169808D01*
X0185972Y0169802D01*
X0185800Y0169800D01*
X0185628Y0169802D01*
X0185457Y0169808D01*
X0185285Y0169819D01*
X0185114Y0169834D01*
X0184943Y0169853D01*
X0184773Y0169876D01*
X0184603Y0169903D01*
X0184434Y0169935D01*
X0184266Y0169970D01*
X0184099Y0170010D01*
X0183933Y0170054D01*
X0183768Y0170101D01*
X0183604Y0170153D01*
X0183442Y0170209D01*
X0183281Y0170269D01*
X0183121Y0170333D01*
X0182963Y0170401D01*
X0182807Y0170472D01*
X0182653Y0170547D01*
X0182500Y0170627D01*
X0182350Y0170709D01*
X0182201Y0170796D01*
X0182055Y0170886D01*
X0181911Y0170980D01*
X0181769Y0171077D01*
X0181630Y0171178D01*
X0181493Y0171282D01*
X0181359Y0171389D01*
X0181228Y0171500D01*
X0181099Y0171613D01*
X0180973Y0171730D01*
X0180850Y0171850D01*
X0180730Y0171973D01*
X0180613Y0172099D01*
X0180500Y0172228D01*
X0180389Y0172359D01*
X0180282Y0172493D01*
X0180178Y0172630D01*
X0180077Y0172769D01*
X0179980Y0172911D01*
X0179886Y0173055D01*
X0179796Y0173201D01*
X0179709Y0173350D01*
X0179627Y0173500D01*
X0179547Y0173653D01*
X0179472Y0173807D01*
X0179401Y0173963D01*
X0179333Y0174121D01*
X0179269Y0174281D01*
X0179209Y0174442D01*
X0179153Y0174604D01*
X0179101Y0174768D01*
X0179054Y0174933D01*
X0179010Y0175099D01*
X0178970Y0175266D01*
X0178935Y0175434D01*
X0178903Y0175603D01*
X0178876Y0175773D01*
X0178853Y0175943D01*
X0178834Y0176114D01*
X0178819Y0176285D01*
X0178808Y0176457D01*
X0178802Y0176628D01*
X0178800Y0176800D01*
X0239300Y0185800D02*
X0269300Y0185800D01*
X0269300Y0180800D01*
X0279300Y0180800D01*
X0279300Y0185800D01*
X0309300Y0185800D01*
X0309300Y0045800D01*
X0239300Y0045800D01*
X0239300Y0185800D01*
D11*
X0024800Y0043300D02*
X0024800Y0041300D01*
X0046800Y0041300D01*
X0047800Y0042300D01*
X0048800Y0041300D01*
X0070800Y0041300D01*
X0070800Y0043300D01*
X0068800Y0043300D01*
X0068800Y0055300D01*
X0070800Y0055300D01*
X0070800Y0057300D01*
X0048800Y0057300D01*
X0047800Y0056300D01*
X0046800Y0057300D01*
X0024800Y0057300D01*
X0024800Y0055300D01*
X0026800Y0055300D01*
X0026800Y0043300D01*
X0024800Y0043300D01*
X0038800Y0045300D02*
X0038800Y0053300D01*
X0056800Y0053300D01*
X0056800Y0045300D01*
X0038800Y0045300D01*
X0039800Y0045300D02*
X0039800Y0053300D01*
X0040800Y0053300D02*
X0040800Y0045300D01*
X0041800Y0045300D02*
X0041800Y0053300D01*
X0042800Y0053300D02*
X0042800Y0045300D01*
X0043800Y0045300D02*
X0043800Y0053300D01*
X0044800Y0053300D02*
X0044800Y0045300D01*
X0045800Y0045300D02*
X0045800Y0053300D01*
X0026900Y0069350D02*
X0164700Y0069350D01*
X0164700Y0199300D01*
X0026900Y0199300D01*
X0026900Y0069350D01*
X0029800Y0081400D02*
X0029800Y0140450D01*
X0077050Y0140450D01*
X0077050Y0081400D01*
X0029800Y0081400D01*
X0080623Y0086052D02*
X0080623Y0156902D01*
X0159373Y0156902D01*
X0159373Y0086052D01*
X0080623Y0086052D01*
X0167046Y0085426D02*
X0167046Y0088429D01*
X0167046Y0086928D02*
X0171550Y0086928D01*
X0171550Y0090030D02*
X0168547Y0090030D01*
X0167046Y0091532D01*
X0168547Y0093033D01*
X0171550Y0093033D01*
X0170799Y0094634D02*
X0171550Y0095385D01*
X0171550Y0096886D01*
X0170799Y0097637D01*
X0169298Y0097637D01*
X0169298Y0096136D01*
X0167797Y0097637D02*
X0167046Y0096886D01*
X0167046Y0095385D01*
X0167797Y0094634D01*
X0170799Y0094634D01*
X0169298Y0093033D02*
X0169298Y0090030D01*
X0172301Y0099238D02*
X0172301Y0102241D01*
X0170799Y0103842D02*
X0167797Y0103842D01*
X0167046Y0104593D01*
X0167046Y0106094D01*
X0167797Y0106845D01*
X0170799Y0106845D01*
X0171550Y0106094D01*
X0171550Y0104593D01*
X0170799Y0103842D01*
X0171550Y0108446D02*
X0167046Y0108446D01*
X0171550Y0111449D01*
X0167046Y0111449D01*
X0168297Y0117550D02*
X0169047Y0117550D01*
X0169798Y0118301D01*
X0169798Y0119802D01*
X0170549Y0120553D01*
X0171299Y0120553D01*
X0172050Y0119802D01*
X0172050Y0118301D01*
X0171299Y0117550D01*
X0168297Y0117550D02*
X0167546Y0118301D01*
X0167546Y0119802D01*
X0168297Y0120553D01*
X0168297Y0122154D02*
X0171299Y0122154D01*
X0172050Y0122905D01*
X0172050Y0124406D01*
X0171299Y0125156D01*
X0170549Y0126758D02*
X0170549Y0129010D01*
X0169798Y0129760D01*
X0168297Y0129760D01*
X0167546Y0129010D01*
X0167546Y0126758D01*
X0172050Y0126758D01*
X0170549Y0128259D02*
X0172050Y0129760D01*
X0172050Y0131362D02*
X0172050Y0134364D01*
X0172050Y0135966D02*
X0172050Y0138968D01*
X0172050Y0140570D02*
X0167546Y0140570D01*
X0172050Y0143572D01*
X0167546Y0143572D01*
X0167546Y0138968D02*
X0167546Y0135966D01*
X0172050Y0135966D01*
X0169798Y0135966D02*
X0169798Y0137467D01*
X0167546Y0134364D02*
X0167546Y0131362D01*
X0172050Y0131362D01*
X0169798Y0131362D02*
X0169798Y0132863D01*
X0168297Y0125156D02*
X0167546Y0124406D01*
X0167546Y0122905D01*
X0168297Y0122154D01*
X0172801Y0145174D02*
X0172801Y0148176D01*
X0171299Y0149777D02*
X0168297Y0149777D01*
X0167546Y0150528D01*
X0167546Y0152029D01*
X0168297Y0152780D01*
X0171299Y0152780D01*
X0172050Y0152029D01*
X0172050Y0150528D01*
X0171299Y0149777D01*
X0172050Y0154381D02*
X0167546Y0154381D01*
X0172050Y0157384D01*
X0167546Y0157384D01*
X0168297Y0170550D02*
X0169047Y0170550D01*
X0169798Y0171301D01*
X0169798Y0172802D01*
X0170549Y0173553D01*
X0171299Y0173553D01*
X0172050Y0172802D01*
X0172050Y0171301D01*
X0171299Y0170550D01*
X0168297Y0170550D02*
X0167546Y0171301D01*
X0167546Y0172802D01*
X0168297Y0173553D01*
X0168297Y0175154D02*
X0171299Y0175154D01*
X0172050Y0175905D01*
X0172050Y0177406D01*
X0171299Y0178156D01*
X0168297Y0178156D01*
X0167546Y0177406D01*
X0167546Y0175905D01*
X0168297Y0175154D01*
X0168297Y0179758D02*
X0169047Y0179758D01*
X0169798Y0180508D01*
X0169798Y0182010D01*
X0170549Y0182760D01*
X0171299Y0182760D01*
X0172050Y0182010D01*
X0172050Y0180508D01*
X0171299Y0179758D01*
X0168297Y0179758D02*
X0167546Y0180508D01*
X0167546Y0182010D01*
X0168297Y0182760D01*
X0313800Y0181550D02*
X0313800Y0065300D01*
X0413800Y0065300D01*
X0413800Y0181550D01*
X0313800Y0181550D01*
D12*
X0293401Y0175337D02*
X0292633Y0176104D01*
X0291099Y0176104D01*
X0290331Y0175337D01*
X0290331Y0172267D01*
X0291099Y0171500D01*
X0292633Y0171500D01*
X0293401Y0172267D01*
X0288797Y0171500D02*
X0285727Y0171500D01*
X0285727Y0176104D01*
X0279589Y0176104D02*
X0279589Y0175337D01*
X0278054Y0173802D01*
X0278054Y0171500D01*
X0278054Y0173802D02*
X0276520Y0175337D01*
X0276520Y0176104D01*
X0274985Y0175337D02*
X0274218Y0176104D01*
X0272683Y0176104D01*
X0271916Y0175337D01*
X0271916Y0174569D01*
X0272683Y0173802D01*
X0274218Y0173802D01*
X0274985Y0173035D01*
X0274985Y0172267D01*
X0274218Y0171500D01*
X0272683Y0171500D01*
X0271916Y0172267D01*
X0270381Y0171500D02*
X0270381Y0176104D01*
X0267312Y0176104D02*
X0270381Y0171500D01*
X0267312Y0171500D02*
X0267312Y0176104D01*
X0265777Y0176104D02*
X0262708Y0176104D01*
X0262708Y0171500D01*
X0265777Y0171500D01*
X0264242Y0173802D02*
X0262708Y0173802D01*
X0261173Y0176104D02*
X0258104Y0176104D01*
X0258104Y0171500D01*
X0261173Y0171500D01*
X0259639Y0173802D02*
X0258104Y0173802D01*
X0256569Y0176104D02*
X0253500Y0176104D01*
X0255035Y0176104D02*
X0255035Y0171500D01*
X0281124Y0170733D02*
X0284193Y0170733D01*
X0334000Y0165104D02*
X0337069Y0165104D01*
X0335535Y0165104D02*
X0335535Y0160500D01*
X0338604Y0160500D02*
X0340906Y0160500D01*
X0341673Y0161267D01*
X0341673Y0164337D01*
X0340906Y0165104D01*
X0338604Y0165104D01*
X0338604Y0160500D01*
X0343208Y0160500D02*
X0346277Y0160500D01*
X0344742Y0160500D02*
X0344742Y0165104D01*
X0343208Y0163569D01*
X0347812Y0164337D02*
X0348579Y0165104D01*
X0350114Y0165104D01*
X0350881Y0164337D01*
X0350881Y0163569D01*
X0347812Y0160500D01*
X0350881Y0160500D01*
X0352416Y0161267D02*
X0353183Y0160500D01*
X0354718Y0160500D01*
X0355485Y0161267D01*
X0355485Y0164337D01*
X0352416Y0161267D01*
X0352416Y0164337D01*
X0353183Y0165104D01*
X0354718Y0165104D01*
X0355485Y0164337D01*
X0357020Y0164337D02*
X0357020Y0163569D01*
X0357787Y0162802D01*
X0359322Y0162802D01*
X0360089Y0162035D01*
X0360089Y0161267D01*
X0359322Y0160500D01*
X0357787Y0160500D01*
X0357020Y0161267D01*
X0357020Y0162035D01*
X0357787Y0162802D01*
X0359322Y0162802D02*
X0360089Y0163569D01*
X0360089Y0164337D01*
X0359322Y0165104D01*
X0357787Y0165104D01*
X0357020Y0164337D01*
X0225100Y0121791D02*
X0225100Y0119723D01*
X0225100Y0120757D02*
X0221997Y0120757D01*
X0223032Y0119723D01*
X0222514Y0118568D02*
X0223549Y0118568D01*
X0224066Y0118051D01*
X0224066Y0116500D01*
X0225100Y0116500D02*
X0221997Y0116500D01*
X0221997Y0118051D01*
X0222514Y0118568D01*
X0224066Y0117534D02*
X0225100Y0118568D01*
X0204600Y0128000D02*
X0201497Y0128000D01*
X0201497Y0129551D01*
X0202014Y0130068D01*
X0203049Y0130068D01*
X0203566Y0129551D01*
X0203566Y0128000D01*
X0203566Y0129034D02*
X0204600Y0130068D01*
X0204600Y0131223D02*
X0202532Y0133291D01*
X0202014Y0133291D01*
X0201497Y0132774D01*
X0201497Y0131740D01*
X0202014Y0131223D01*
X0204600Y0131223D02*
X0204600Y0133291D01*
X0211264Y0101541D02*
X0211782Y0101541D01*
X0212299Y0101024D01*
X0212816Y0101541D01*
X0213333Y0101541D01*
X0213850Y0101024D01*
X0213850Y0099990D01*
X0213333Y0099473D01*
X0213850Y0098318D02*
X0212816Y0097284D01*
X0212816Y0097801D02*
X0212816Y0096250D01*
X0213850Y0096250D02*
X0210747Y0096250D01*
X0210747Y0097801D01*
X0211264Y0098318D01*
X0212299Y0098318D01*
X0212816Y0097801D01*
X0211264Y0099473D02*
X0210747Y0099990D01*
X0210747Y0101024D01*
X0211264Y0101541D01*
X0212299Y0101024D02*
X0212299Y0100507D01*
X0171643Y0077569D02*
X0171643Y0073733D01*
X0170876Y0072965D01*
X0170109Y0072965D01*
X0169341Y0074500D02*
X0171643Y0074500D01*
X0169341Y0074500D02*
X0168574Y0075267D01*
X0168574Y0077569D01*
X0167039Y0076802D02*
X0167039Y0074500D01*
X0164737Y0074500D01*
X0163970Y0075267D01*
X0164737Y0076035D01*
X0167039Y0076035D01*
X0167039Y0076802D02*
X0166272Y0077569D01*
X0164737Y0077569D01*
X0161668Y0079104D02*
X0160901Y0079104D01*
X0161668Y0079104D02*
X0161668Y0074500D01*
X0160901Y0074500D02*
X0162435Y0074500D01*
X0159366Y0075267D02*
X0159366Y0076802D01*
X0158599Y0077569D01*
X0156297Y0077569D01*
X0156297Y0072965D01*
X0156297Y0074500D02*
X0158599Y0074500D01*
X0159366Y0075267D01*
X0154762Y0075267D02*
X0153995Y0076035D01*
X0152460Y0076035D01*
X0151693Y0076802D01*
X0152460Y0077569D01*
X0154762Y0077569D01*
X0154762Y0075267D02*
X0153995Y0074500D01*
X0151693Y0074500D01*
X0150158Y0074500D02*
X0148624Y0074500D01*
X0149391Y0074500D02*
X0149391Y0077569D01*
X0148624Y0077569D01*
X0149391Y0079104D02*
X0149391Y0079871D01*
X0147089Y0078337D02*
X0146322Y0079104D01*
X0144020Y0079104D01*
X0144020Y0074500D01*
X0146322Y0074500D01*
X0147089Y0075267D01*
X0147089Y0078337D01*
X0137881Y0078337D02*
X0137881Y0075267D01*
X0137114Y0074500D01*
X0134812Y0074500D01*
X0134812Y0079104D01*
X0137114Y0079104D01*
X0137881Y0078337D01*
X0133277Y0079104D02*
X0130208Y0079104D01*
X0130208Y0074500D01*
X0133277Y0074500D01*
X0131742Y0076802D02*
X0130208Y0076802D01*
X0128673Y0074500D02*
X0125604Y0074500D01*
X0125604Y0079104D01*
X0124069Y0078337D02*
X0123302Y0079104D01*
X0121767Y0079104D01*
X0121000Y0078337D01*
X0121000Y0075267D01*
X0121767Y0074500D01*
X0123302Y0074500D01*
X0124069Y0075267D01*
X0124069Y0078337D01*
X0102089Y0050604D02*
X0099020Y0050604D01*
X0099020Y0046000D01*
X0099020Y0048302D02*
X0100554Y0048302D01*
X0097485Y0050604D02*
X0094416Y0050604D01*
X0094416Y0046000D01*
X0092881Y0046767D02*
X0092114Y0046000D01*
X0090579Y0046000D01*
X0089812Y0046767D01*
X0089812Y0049837D01*
X0090579Y0050604D01*
X0092114Y0050604D01*
X0092881Y0049837D01*
X0092881Y0046767D01*
X0094416Y0048302D02*
X0095950Y0048302D01*
X0088277Y0050604D02*
X0085208Y0046000D01*
X0083673Y0046000D02*
X0083673Y0050604D01*
X0080604Y0050604D02*
X0083673Y0046000D01*
X0080604Y0046000D02*
X0080604Y0050604D01*
X0079069Y0049837D02*
X0079069Y0046767D01*
X0078302Y0046000D01*
X0076767Y0046000D01*
X0076000Y0046767D01*
X0076000Y0049837D01*
X0076767Y0050604D01*
X0078302Y0050604D01*
X0079069Y0049837D01*
X0089569Y0114420D02*
X0094173Y0114420D01*
X0091871Y0114420D02*
X0091871Y0117489D01*
X0089569Y0117489D02*
X0094173Y0117489D01*
X0094173Y0119024D02*
X0089569Y0119024D01*
X0091104Y0120559D01*
X0089569Y0122093D01*
X0094173Y0122093D01*
X0093406Y0123628D02*
X0094173Y0124395D01*
X0094173Y0125930D01*
X0093406Y0126697D01*
X0093406Y0128232D02*
X0094173Y0128999D01*
X0094173Y0130534D01*
X0093406Y0131301D01*
X0091871Y0131301D01*
X0091104Y0130534D01*
X0091104Y0129766D01*
X0091871Y0128232D01*
X0089569Y0128232D01*
X0089569Y0131301D01*
X0090337Y0132836D02*
X0089569Y0133603D01*
X0089569Y0135138D01*
X0090337Y0135905D01*
X0091104Y0135905D01*
X0091871Y0135138D01*
X0091871Y0133603D01*
X0091104Y0132836D01*
X0090337Y0132836D01*
X0091871Y0133603D02*
X0092639Y0132836D01*
X0093406Y0132836D01*
X0094173Y0133603D01*
X0094173Y0135138D01*
X0093406Y0135905D01*
X0092639Y0135905D01*
X0091871Y0135138D01*
X0091104Y0137440D02*
X0090337Y0137440D01*
X0089569Y0138207D01*
X0089569Y0139742D01*
X0090337Y0140509D01*
X0091104Y0140509D01*
X0091871Y0139742D01*
X0091871Y0138207D01*
X0091104Y0137440D01*
X0091871Y0138207D02*
X0092639Y0137440D01*
X0093406Y0137440D01*
X0094173Y0138207D01*
X0094173Y0139742D01*
X0093406Y0140509D01*
X0092639Y0140509D01*
X0091871Y0139742D01*
X0090337Y0142044D02*
X0089569Y0142811D01*
X0089569Y0144346D01*
X0090337Y0145113D01*
X0091104Y0145113D01*
X0091871Y0144346D01*
X0092639Y0145113D01*
X0093406Y0145113D01*
X0094173Y0144346D01*
X0094173Y0142811D01*
X0093406Y0142044D01*
X0091871Y0143578D02*
X0091871Y0144346D01*
X0089569Y0146648D02*
X0094173Y0146648D01*
X0094173Y0149717D01*
X0067861Y0135104D02*
X0067861Y0131267D01*
X0067094Y0130500D01*
X0065559Y0130500D01*
X0064792Y0131267D01*
X0064792Y0135104D01*
X0063257Y0132802D02*
X0060188Y0132802D01*
X0058653Y0132802D02*
X0058653Y0131267D01*
X0057886Y0130500D01*
X0055584Y0130500D01*
X0055584Y0128965D02*
X0055584Y0133569D01*
X0057886Y0133569D01*
X0058653Y0132802D01*
X0054050Y0132802D02*
X0054050Y0132035D01*
X0050980Y0132035D01*
X0050980Y0132802D02*
X0051748Y0133569D01*
X0053282Y0133569D01*
X0054050Y0132802D01*
X0053282Y0130500D02*
X0051748Y0130500D01*
X0050980Y0131267D01*
X0050980Y0132802D01*
X0049446Y0133569D02*
X0047911Y0133569D01*
X0048678Y0134337D02*
X0048678Y0131267D01*
X0049446Y0130500D01*
X0046376Y0131267D02*
X0046376Y0132035D01*
X0045609Y0132802D01*
X0044074Y0132802D01*
X0043307Y0133569D01*
X0043307Y0134337D01*
X0044074Y0135104D01*
X0045609Y0135104D01*
X0046376Y0134337D01*
X0046376Y0131267D02*
X0045609Y0130500D01*
X0044074Y0130500D01*
X0043307Y0131267D01*
X0037168Y0131267D02*
X0036401Y0130500D01*
X0034867Y0130500D01*
X0034099Y0131267D01*
X0032565Y0132035D02*
X0032565Y0135104D01*
X0034099Y0134337D02*
X0034867Y0135104D01*
X0036401Y0135104D01*
X0037168Y0134337D01*
X0037168Y0133569D01*
X0036401Y0132802D01*
X0037168Y0132035D01*
X0037168Y0131267D01*
X0036401Y0132802D02*
X0035634Y0132802D01*
X0032565Y0132035D02*
X0031030Y0130500D01*
X0029495Y0132035D01*
X0029495Y0135104D01*
X0027961Y0134337D02*
X0027961Y0133569D01*
X0027193Y0132802D01*
X0027961Y0132035D01*
X0027961Y0131267D01*
X0027193Y0130500D01*
X0025659Y0130500D01*
X0024891Y0131267D01*
X0026426Y0132802D02*
X0027193Y0132802D01*
X0027961Y0134337D02*
X0027193Y0135104D01*
X0025659Y0135104D01*
X0024891Y0134337D01*
X0069396Y0133569D02*
X0069396Y0128965D01*
X0069396Y0130500D02*
X0071698Y0130500D01*
X0072465Y0131267D01*
X0072465Y0132802D01*
X0071698Y0133569D01*
X0069396Y0133569D01*
X0089569Y0125930D02*
X0089569Y0124395D01*
X0090337Y0123628D01*
X0093406Y0123628D01*
X0090337Y0126697D02*
X0089569Y0125930D01*
D13*
X0205800Y0126300D02*
X0205800Y0127800D01*
X0206300Y0128300D01*
X0206300Y0147300D01*
X0205800Y0147800D01*
X0205800Y0149300D01*
X0205802Y0149360D01*
X0205807Y0149421D01*
X0205816Y0149480D01*
X0205829Y0149539D01*
X0205845Y0149598D01*
X0205865Y0149655D01*
X0205888Y0149710D01*
X0205915Y0149765D01*
X0205944Y0149817D01*
X0205977Y0149868D01*
X0206013Y0149917D01*
X0206051Y0149963D01*
X0206093Y0150007D01*
X0206137Y0150049D01*
X0206183Y0150087D01*
X0206232Y0150123D01*
X0206283Y0150156D01*
X0206335Y0150185D01*
X0206390Y0150212D01*
X0206445Y0150235D01*
X0206502Y0150255D01*
X0206561Y0150271D01*
X0206620Y0150284D01*
X0206679Y0150293D01*
X0206740Y0150298D01*
X0206800Y0150300D01*
X0213800Y0150300D01*
X0213860Y0150298D01*
X0213921Y0150293D01*
X0213980Y0150284D01*
X0214039Y0150271D01*
X0214098Y0150255D01*
X0214155Y0150235D01*
X0214210Y0150212D01*
X0214265Y0150185D01*
X0214317Y0150156D01*
X0214368Y0150123D01*
X0214417Y0150087D01*
X0214463Y0150049D01*
X0214507Y0150007D01*
X0214549Y0149963D01*
X0214587Y0149917D01*
X0214623Y0149868D01*
X0214656Y0149817D01*
X0214685Y0149765D01*
X0214712Y0149710D01*
X0214735Y0149655D01*
X0214755Y0149598D01*
X0214771Y0149539D01*
X0214784Y0149480D01*
X0214793Y0149421D01*
X0214798Y0149360D01*
X0214800Y0149300D01*
X0214800Y0147800D01*
X0214300Y0147300D01*
X0214300Y0128300D01*
X0214800Y0127800D01*
X0214800Y0126300D01*
X0214798Y0126240D01*
X0214793Y0126179D01*
X0214784Y0126120D01*
X0214771Y0126061D01*
X0214755Y0126002D01*
X0214735Y0125945D01*
X0214712Y0125890D01*
X0214685Y0125835D01*
X0214656Y0125783D01*
X0214623Y0125732D01*
X0214587Y0125683D01*
X0214549Y0125637D01*
X0214507Y0125593D01*
X0214463Y0125551D01*
X0214417Y0125513D01*
X0214368Y0125477D01*
X0214317Y0125444D01*
X0214265Y0125415D01*
X0214210Y0125388D01*
X0214155Y0125365D01*
X0214098Y0125345D01*
X0214039Y0125329D01*
X0213980Y0125316D01*
X0213921Y0125307D01*
X0213860Y0125302D01*
X0213800Y0125300D01*
X0206800Y0125300D01*
X0206740Y0125302D01*
X0206679Y0125307D01*
X0206620Y0125316D01*
X0206561Y0125329D01*
X0206502Y0125345D01*
X0206445Y0125365D01*
X0206390Y0125388D01*
X0206335Y0125415D01*
X0206283Y0125444D01*
X0206232Y0125477D01*
X0206183Y0125513D01*
X0206137Y0125551D01*
X0206093Y0125593D01*
X0206051Y0125637D01*
X0206013Y0125683D01*
X0205977Y0125732D01*
X0205944Y0125783D01*
X0205915Y0125835D01*
X0205888Y0125890D01*
X0205865Y0125945D01*
X0205845Y0126002D01*
X0205829Y0126061D01*
X0205816Y0126120D01*
X0205807Y0126179D01*
X0205802Y0126240D01*
X0205800Y0126300D01*
X0215050Y0117550D02*
X0215050Y0116050D01*
X0215550Y0115550D01*
X0215550Y0096550D01*
X0215050Y0096050D01*
X0215050Y0094550D01*
X0215052Y0094490D01*
X0215057Y0094429D01*
X0215066Y0094370D01*
X0215079Y0094311D01*
X0215095Y0094252D01*
X0215115Y0094195D01*
X0215138Y0094140D01*
X0215165Y0094085D01*
X0215194Y0094033D01*
X0215227Y0093982D01*
X0215263Y0093933D01*
X0215301Y0093887D01*
X0215343Y0093843D01*
X0215387Y0093801D01*
X0215433Y0093763D01*
X0215482Y0093727D01*
X0215533Y0093694D01*
X0215585Y0093665D01*
X0215640Y0093638D01*
X0215695Y0093615D01*
X0215752Y0093595D01*
X0215811Y0093579D01*
X0215870Y0093566D01*
X0215929Y0093557D01*
X0215990Y0093552D01*
X0216050Y0093550D01*
X0223050Y0093550D01*
X0223110Y0093552D01*
X0223171Y0093557D01*
X0223230Y0093566D01*
X0223289Y0093579D01*
X0223348Y0093595D01*
X0223405Y0093615D01*
X0223460Y0093638D01*
X0223515Y0093665D01*
X0223567Y0093694D01*
X0223618Y0093727D01*
X0223667Y0093763D01*
X0223713Y0093801D01*
X0223757Y0093843D01*
X0223799Y0093887D01*
X0223837Y0093933D01*
X0223873Y0093982D01*
X0223906Y0094033D01*
X0223935Y0094085D01*
X0223962Y0094140D01*
X0223985Y0094195D01*
X0224005Y0094252D01*
X0224021Y0094311D01*
X0224034Y0094370D01*
X0224043Y0094429D01*
X0224048Y0094490D01*
X0224050Y0094550D01*
X0224050Y0096050D01*
X0223550Y0096550D01*
X0223550Y0115550D01*
X0224050Y0116050D01*
X0224050Y0117550D01*
X0224048Y0117610D01*
X0224043Y0117671D01*
X0224034Y0117730D01*
X0224021Y0117789D01*
X0224005Y0117848D01*
X0223985Y0117905D01*
X0223962Y0117960D01*
X0223935Y0118015D01*
X0223906Y0118067D01*
X0223873Y0118118D01*
X0223837Y0118167D01*
X0223799Y0118213D01*
X0223757Y0118257D01*
X0223713Y0118299D01*
X0223667Y0118337D01*
X0223618Y0118373D01*
X0223567Y0118406D01*
X0223515Y0118435D01*
X0223460Y0118462D01*
X0223405Y0118485D01*
X0223348Y0118505D01*
X0223289Y0118521D01*
X0223230Y0118534D01*
X0223171Y0118543D01*
X0223110Y0118548D01*
X0223050Y0118550D01*
X0216050Y0118550D01*
X0215990Y0118548D01*
X0215929Y0118543D01*
X0215870Y0118534D01*
X0215811Y0118521D01*
X0215752Y0118505D01*
X0215695Y0118485D01*
X0215640Y0118462D01*
X0215585Y0118435D01*
X0215533Y0118406D01*
X0215482Y0118373D01*
X0215433Y0118337D01*
X0215387Y0118299D01*
X0215343Y0118257D01*
X0215301Y0118213D01*
X0215263Y0118167D01*
X0215227Y0118118D01*
X0215194Y0118067D01*
X0215165Y0118015D01*
X0215138Y0117960D01*
X0215115Y0117905D01*
X0215095Y0117848D01*
X0215079Y0117789D01*
X0215066Y0117730D01*
X0215057Y0117671D01*
X0215052Y0117610D01*
X0215050Y0117550D01*
X0226300Y0116300D02*
X0226800Y0116800D01*
X0226800Y0135800D01*
X0226300Y0136300D01*
X0226300Y0137800D01*
X0226302Y0137860D01*
X0226307Y0137921D01*
X0226316Y0137980D01*
X0226329Y0138039D01*
X0226345Y0138098D01*
X0226365Y0138155D01*
X0226388Y0138210D01*
X0226415Y0138265D01*
X0226444Y0138317D01*
X0226477Y0138368D01*
X0226513Y0138417D01*
X0226551Y0138463D01*
X0226593Y0138507D01*
X0226637Y0138549D01*
X0226683Y0138587D01*
X0226732Y0138623D01*
X0226783Y0138656D01*
X0226835Y0138685D01*
X0226890Y0138712D01*
X0226945Y0138735D01*
X0227002Y0138755D01*
X0227061Y0138771D01*
X0227120Y0138784D01*
X0227179Y0138793D01*
X0227240Y0138798D01*
X0227300Y0138800D01*
X0234300Y0138800D01*
X0234360Y0138798D01*
X0234421Y0138793D01*
X0234480Y0138784D01*
X0234539Y0138771D01*
X0234598Y0138755D01*
X0234655Y0138735D01*
X0234710Y0138712D01*
X0234765Y0138685D01*
X0234817Y0138656D01*
X0234868Y0138623D01*
X0234917Y0138587D01*
X0234963Y0138549D01*
X0235007Y0138507D01*
X0235049Y0138463D01*
X0235087Y0138417D01*
X0235123Y0138368D01*
X0235156Y0138317D01*
X0235185Y0138265D01*
X0235212Y0138210D01*
X0235235Y0138155D01*
X0235255Y0138098D01*
X0235271Y0138039D01*
X0235284Y0137980D01*
X0235293Y0137921D01*
X0235298Y0137860D01*
X0235300Y0137800D01*
X0235300Y0136300D01*
X0234800Y0135800D01*
X0234800Y0116800D01*
X0235300Y0116300D01*
X0235300Y0114800D01*
X0235298Y0114740D01*
X0235293Y0114679D01*
X0235284Y0114620D01*
X0235271Y0114561D01*
X0235255Y0114502D01*
X0235235Y0114445D01*
X0235212Y0114390D01*
X0235185Y0114335D01*
X0235156Y0114283D01*
X0235123Y0114232D01*
X0235087Y0114183D01*
X0235049Y0114137D01*
X0235007Y0114093D01*
X0234963Y0114051D01*
X0234917Y0114013D01*
X0234868Y0113977D01*
X0234817Y0113944D01*
X0234765Y0113915D01*
X0234710Y0113888D01*
X0234655Y0113865D01*
X0234598Y0113845D01*
X0234539Y0113829D01*
X0234480Y0113816D01*
X0234421Y0113807D01*
X0234360Y0113802D01*
X0234300Y0113800D01*
X0227300Y0113800D01*
X0227240Y0113802D01*
X0227179Y0113807D01*
X0227120Y0113816D01*
X0227061Y0113829D01*
X0227002Y0113845D01*
X0226945Y0113865D01*
X0226890Y0113888D01*
X0226835Y0113915D01*
X0226783Y0113944D01*
X0226732Y0113977D01*
X0226683Y0114013D01*
X0226637Y0114051D01*
X0226593Y0114093D01*
X0226551Y0114137D01*
X0226513Y0114183D01*
X0226477Y0114232D01*
X0226444Y0114283D01*
X0226415Y0114335D01*
X0226388Y0114390D01*
X0226365Y0114445D01*
X0226345Y0114502D01*
X0226329Y0114561D01*
X0226316Y0114620D01*
X0226307Y0114679D01*
X0226302Y0114740D01*
X0226300Y0114800D01*
X0226300Y0116300D01*
D14*
X0230800Y0112100D03*
X0219550Y0120250D03*
X0210300Y0123600D03*
X0230800Y0140500D03*
X0210300Y0152000D03*
X0219550Y0091850D03*
M02*
