G75*
%MOIN*%
%OFA0B0*%
%FSLAX25Y25*%
%IPPOS*%
%LPD*%
%AMOC8*
5,1,8,0,0,1.08239X$1,22.5*
%
%ADD10C,0.10800*%
%ADD11C,0.08200*%
%ADD12C,0.07400*%
%ADD13OC8,0.06000*%
%ADD14C,0.06600*%
%ADD15C,0.05950*%
%ADD16C,0.05156*%
D10*
X0056217Y0061800D03*
X0233383Y0061800D03*
D11*
X0194700Y0086500D03*
X0176900Y0086500D03*
X0176900Y0112100D03*
X0176900Y0123500D03*
X0194700Y0123500D03*
X0194700Y0112100D03*
X0194700Y0149100D03*
X0176900Y0149100D03*
X0176900Y0164000D03*
X0194700Y0164000D03*
X0194700Y0189600D03*
X0176900Y0189600D03*
D12*
X0037800Y0049300D03*
X0047800Y0049300D03*
X0057800Y0049300D03*
D13*
X0210300Y0117800D03*
X0219550Y0126050D03*
X0230800Y0106300D03*
X0219550Y0086050D03*
X0230800Y0146300D03*
X0210300Y0157800D03*
D14*
X0244300Y0160800D03*
X0244300Y0170800D03*
X0244300Y0180800D03*
X0244300Y0150800D03*
X0244300Y0140800D03*
X0244300Y0130800D03*
X0244300Y0120800D03*
X0244300Y0110800D03*
X0244300Y0100800D03*
X0244300Y0090800D03*
X0244300Y0080800D03*
X0244300Y0070800D03*
X0244300Y0060800D03*
X0244300Y0050800D03*
X0304300Y0050800D03*
X0304300Y0060800D03*
X0304300Y0070800D03*
X0304300Y0080800D03*
X0304300Y0090800D03*
X0304300Y0100800D03*
X0304300Y0110800D03*
X0304300Y0120800D03*
X0304300Y0130800D03*
X0304300Y0140800D03*
X0304300Y0150800D03*
X0304300Y0160800D03*
X0304300Y0170800D03*
X0304300Y0180800D03*
D15*
X0305300Y0192300D03*
X0295300Y0192300D03*
X0285300Y0192300D03*
X0315300Y0192300D03*
X0336800Y0173800D03*
X0336800Y0163800D03*
X0336800Y0153800D03*
X0336800Y0143800D03*
X0318800Y0145300D03*
X0318800Y0135300D03*
X0318800Y0125300D03*
X0318800Y0115300D03*
X0318800Y0105300D03*
X0318800Y0095300D03*
X0370300Y0091300D03*
X0370300Y0081300D03*
X0370300Y0071300D03*
X0370300Y0061300D03*
X0370300Y0051300D03*
X0408800Y0075300D03*
X0408800Y0085300D03*
X0408800Y0095300D03*
X0408800Y0105300D03*
X0408800Y0115300D03*
X0408800Y0125300D03*
X0408800Y0135300D03*
X0408800Y0145300D03*
X0408800Y0155300D03*
X0318800Y0155300D03*
X0318800Y0165300D03*
X0233800Y0189800D03*
X0223800Y0189800D03*
X0213800Y0189800D03*
X0203800Y0189800D03*
X0130800Y0187300D03*
X0120800Y0187300D03*
X0110800Y0187300D03*
X0100800Y0187300D03*
X0090800Y0187300D03*
X0080800Y0187300D03*
X0070800Y0187300D03*
X0060800Y0187300D03*
X0094373Y0096052D03*
X0104373Y0096052D03*
X0114373Y0096052D03*
X0124373Y0096052D03*
X0134373Y0096052D03*
X0144373Y0096052D03*
X0068800Y0085300D03*
X0058800Y0085300D03*
X0048800Y0085300D03*
X0038800Y0085300D03*
X0370300Y0101300D03*
D16*
X0360050Y0059550D03*
X0272300Y0073300D03*
X0257300Y0057800D03*
X0124300Y0111800D03*
X0111800Y0148800D03*
X0090800Y0165050D03*
M02*
