%
M48
M72
T01C0.02756
T02C0.03150
T03C0.03200
T04C0.03543
T05C0.03800
T06C0.03937
T07C0.04000
%
T01
X124300Y111800
X111800Y148800
X90800Y165050
X272300Y73300
X257300Y57800
X360050Y59550
T02
X370300Y61300
X370300Y51300
X370300Y71300
X370300Y81300
X370300Y91300
X370300Y101300
X408800Y105300
X408800Y95300
X408800Y85300
X408800Y75300
X408800Y115300
X408800Y125300
X408800Y135300
X408800Y145300
X408800Y155300
X336800Y153800
X336800Y143800
X318800Y145300
X318800Y135300
X318800Y125300
X318800Y115300
X318800Y105300
X318800Y95300
X318800Y155300
X318800Y165300
X336800Y163800
X336800Y173800
X315300Y192300
X305300Y192300
X295300Y192300
X285300Y192300
X233800Y189800
X223800Y189800
X213800Y189800
X203800Y189800
X130800Y187300
X120800Y187300
X110800Y187300
X100800Y187300
X90800Y187300
X80800Y187300
X70800Y187300
X60800Y187300
X94373Y96052
X104373Y96052
X114373Y96052
X124373Y96052
X134373Y96052
X144373Y96052
X68800Y85300
X58800Y85300
X48800Y85300
X38800Y85300
T03
X210300Y117800
X219550Y126050
X230800Y106300
X219550Y86050
X230800Y146300
X210300Y157800
T04
X37800Y49300
X47800Y49300
X57800Y49300
T05
X244300Y50800
X244300Y60800
X244300Y70800
X244300Y80800
X244300Y90800
X244300Y100800
X244300Y110800
X244300Y120800
X244300Y130800
X244300Y140800
X244300Y150800
X244300Y160800
X244300Y170800
X244300Y180800
X304300Y180800
X304300Y170800
X304300Y160800
X304300Y150800
X304300Y140800
X304300Y130800
X304300Y120800
X304300Y110800
X304300Y100800
X304300Y90800
X304300Y80800
X304300Y70800
X304300Y60800
X304300Y50800
T06
X233383Y61800
X56217Y61800
T07
X176900Y86500
X194700Y86500
X194700Y112100
X194700Y123500
X176900Y123500
X176900Y112100
X176900Y149100
X194700Y149100
X194700Y164000
X176900Y164000
X176900Y189600
X194700Y189600
M30
